<?xml version="1.0" encoding="UTF-8"?>
<!DOCTYPE svg PUBLIC "-//W3C//DTD SVG 1.1//EN" "http://www.w3.org/Graphics/SVG/1.1/DTD/svg11.dtd">
<!-- Creator: CorelDRAW X8 -->
<svg xmlns="http://www.w3.org/2000/svg" xml:space="preserve" width="2362px" height="2362px" version="1.1" style="shape-rendering:geometricPrecision; text-rendering:geometricPrecision; image-rendering:optimizeQuality; fill-rule:evenodd; clip-rule:evenodd"
viewBox="0 0 2362 2362"
 xmlns:xlink="http://www.w3.org/1999/xlink">
 <defs>
  <style type="text/css">
   <![CDATA[
    .fil2 {fill:#FEFEFE}
    .fil3 {fill:#FEFEFE}
    .fil0 {fill:#076132}
    .fil1 {fill:#0B6B40}
   ]]>
  </style>
 </defs>
 <g id="Layer_x0020_1">
  <metadata id="CorelCorpID_0Corel-Layer"/>
  <g id="_391378968">
   <rect class="fil0" width="2362" height="2362"/>
   <path class="fil1" d="M1181 820c198,0 360,162 360,361 0,198 -162,360 -360,360 -199,0 -361,-162 -361,-360 0,-199 162,-361 361,-361z"/>
   <path class="fil2" d="M1455 1745l115 238 -55 -38 -82 -189c7,-4 15,-7 22,-11zm338 -422l19 4 22 20 -26 7 -22 -6c3,-8 5,-17 7,-25zm-13 45l108 34 26 36 -140 -50c2,-6 4,-13 6,-20zm-17 48l192 77 39 55 -241 -109c4,-8 7,-15 10,-23zm-22 49l305 155 45 63 -77 -5 -294 -176c8,-12 14,-25 21,-37zm-36 61l220 146 -67 -5 -167 -120c5,-7 9,-14 14,-21zm-32 44l117 93 -45 -3 -86 -73c5,-6 10,-11 14,-17zm-34 39l15 14 9 28 -26 -7 -16 -16c6,-6 12,-12 18,-19zm-38 38l76 85 4 44 -96 -115c5,-5 10,-9 16,-14zm-39 33l125 164 6 67 -151 -217c6,-4 13,-9 20,-14zm-44 30l183 290 7 77 -64 -44 -160 -301 34 -22zm-159 73l6 19 -7 29 -19 -19 -6 -22c9,-2 18,-5 26,-7zm47 -16l53 139 -37 -25 -37 -107c7,-2 14,-4 21,-7zm-99 29l23 111 -19 40 -25 -147c7,-1 14,-3 21,-4zm-50 8l24 205 -28 61 -21 -264c8,0 16,-1 25,-2zm-54 4l12 343 -33 70 -33 -70 12 -343c6,0 13,1 20,1 7,0 15,-1 22,-1zm-71 -1l-21 263 -29 -61 25 -205c8,1 16,2 25,3zm-54 -7l-25 147 -19 -40 23 -111c7,2 14,3 21,4zm-53 -11l-5 21 -21 21 -6 -26 7 -23c8,2 16,5 25,7zm-52 -16l-37 108 -36 25 53 -140c7,2 13,5 20,7zm-47 -19l-83 191 -55 38 115 -239c8,3 15,7 23,10zm-48 -24l-164 303 -64 44 7 -77 185 -291c12,7 24,14 36,21zm-60 -38l-153 219 6 -67 127 -166c7,5 13,10 20,14zm-43 -33l-98 117 4 -44 78 -87c5,5 11,10 16,14zm-40 -37l-17 17 -28 8 8 -26 19 -18c6,6 12,13 18,19zm-34 -37l-88 75 -44 3 119 -95c4,6 8,12 13,17zm-31 -40l-170 122 -67 5 223 -147c4,6 9,13 14,20zm-29 -45l-297 178 -77 5 45 -63 308 -157c7,13 13,25 21,37zm-33 -63l-243 111 39 -55 194 -78c3,7 7,15 10,22zm-20 -50l-144 51 26 -36 111 -35c2,7 5,13 7,20zm-12 -39l-24 7 -29 -7 20 -19 26 -6c2,9 4,17 7,25zm252 -97l-373 76 -40 -19 411 -69c1,4 1,8 2,12zm-4 -29l-471 57 -61 -29 530 -42c1,5 1,9 2,14zm-3 -30l-610 20 -70 -33 70 -33 611 21c-1,5 -1,9 -1,14 0,4 0,7 0,11zm2 -41l-531 -43 61 -28 471 56c0,5 -1,10 -1,15zm4 -31l-412 -69 40 -19 374 76c-1,4 -2,8 -2,12zm-257 -83l-25 -5 -22 -20 26 -7 27 7c-2,8 -4,17 -6,25zm13 -47l-107 -34 -30 -36 143 51c-2,6 -4,12 -6,19zm17 -47l-194 -79 -39 -54 243 110c-4,8 -7,16 -10,23zm22 -48l-307 -158 -46 -63 78 6 296 178c-7,12 -14,24 -21,37zm36 -61l-222 -148 67 4 170 123c-5,7 -10,14 -15,21zm32 -44l-119 -95 45 3 88 75c-5,6 -9,11 -14,17zm29 -33l-20 -17 -9 -29 27 7 20 20c-6,6 -12,13 -18,19zm40 -40l-78 -86 -4 -44 98 116c-5,4 -11,9 -16,14zm39 -33l-127 -165 -7 -67 154 217c-7,5 -14,10 -20,15zm44 -31l-187 -290 -7 -77 64 44 166 302c-12,6 -24,14 -36,21zm61 -35l-117 -238 56 37 84 191c-8,3 -15,7 -23,10zm50 -22l-54 -140 36 25 38 108c-7,2 -13,5 -20,7zm46 -16l-7 -24 7 -28 19 19 7 26c-9,2 -17,5 -26,7zm54 -13l-22 -112 19 -40 24 148c-7,1 -14,2 -21,4zm51 -9l-25 -205 28 -61 21 264c-8,0 -16,1 -24,2zm53 -4l-12 -343 33 -70 33 70 -11 343c-7,0 -13,-1 -19,-1 -8,0 -16,1 -24,1zm71 1l21 -263 29 61 -25 205c-8,-1 -16,-2 -25,-3zm54 7l25 -147 19 40 -22 111c-7,-2 -14,-3 -22,-4zm48 9l6 -22 20 -22 7 26 -7 25c-9,-2 -17,-4 -26,-7zm55 17l38 -107 37 -25 -54 139c-7,-3 -14,-5 -21,-7zm48 18l84 -189 55 -37 -117 237c-7,-4 -15,-7 -22,-11zm48 24l165 -300 64 -44 -7 77 -185 289c-12,-8 -25,-15 -37,-22zm61 38l152 -216 -6 67 -126 163c-7,-5 -14,-10 -20,-14zm43 33l96 -114 -4 44 -76 84c-5,-5 -11,-10 -16,-14zm32 29l16 -16 28 -8 -7 26 -18 17c-6,-6 -12,-13 -19,-19zm39 42l87 -74 44 -3 -117 93c-4,-5 -9,-11 -14,-16zm32 39l168 -121 66 -4 -220 146c-4,-7 -9,-14 -14,-21zm30 45l294 -176 77 -6 -45 63 -305 156c-7,-12 -14,-25 -21,-37zm33 63l240 -109 -39 54 -190 78c-4,-8 -7,-15 -11,-23zm21 50l140 -49 -29 36 -104 33c-2,-7 -5,-13 -7,-20zm12 36l20 -6 29 7 -20 19 -22 5c-2,-8 -5,-17 -7,-25zm-251 103l374 -76 40 19 -412 69c0,-4 -1,-8 -2,-12zm476 -28l61 28 -531 43c0,-5 -1,-10 -1,-15l471 -56zm-471 142l471 57 61 -29 -530 -42c-1,5 -1,9 -2,14zm-4 29l373 76 40 -19 -411 -69c-1,4 -1,8 -2,12zm617 -105l70 33 -70 33 -610 -20c0,-4 0,-7 0,-11 0,-5 0,-9 -1,-14l611 -21z"/>
   <path class="fil2" d="M1526 1079l37 -10c1,5 3,10 4,16l-37 9c-1,-5 -3,-10 -4,-15zm-692 197l-37 10c-1,-5 -2,-10 -4,-16l37 -9c2,5 3,10 4,15zm698 -14l37 8c-2,6 -3,11 -4,17l-37 -11c1,-4 2,-9 4,-14zm-8 26l37 11c-1,4 -3,9 -4,13l-36 -13c1,-4 2,-8 3,-11zm-9 27l35 14c-2,5 -4,10 -6,15l-35 -16c2,-4 4,-9 6,-13zm-13 28l34 17c-4,8 -9,16 -13,24l-33 -20c4,-7 8,-14 12,-21zm-21 35l32 21c-3,5 -6,9 -9,13l-31 -22c3,-4 6,-8 8,-12zm-18 26l30 23c-3,4 -6,7 -9,11l-29 -25c3,-3 6,-6 8,-9zm-20 22l28 26c-4,5 -7,9 -11,12l-27 -27c3,-3 7,-7 10,-11zm-21 22l25 28c-3,3 -7,6 -10,9l-25 -29c4,-3 7,-6 10,-8zm-23 18l23 31c-4,3 -8,6 -12,9l-22 -31c4,-3 8,-6 11,-9zm-25 18l21 32c-8,5 -16,10 -24,14l-18 -34c7,-4 14,-8 21,-12zm-35 20l16 34c-5,3 -9,5 -14,7l-15 -35c4,-2 8,-4 13,-6zm-29 12l14 36c-5,2 -9,3 -13,5l-13 -36c4,-2 8,-3 12,-5zm-28 10l11 36c-5,2 -11,3 -16,5l-9 -37c4,-1 9,-3 14,-4zm-29 7l8 37c-4,1 -9,2 -13,3l-7 -38c4,0 8,-1 12,-2zm-28 5l4 38c-5,0 -10,1 -16,1l-3 -38c5,0 10,-1 15,-1zm-31 2l1 38c-4,0 -9,1 -14,1 -4,0 -8,-1 -13,-1l2 -38c3,0 7,0 11,0 4,0 9,0 13,0zm-41 -1l-3 38c-5,0 -10,-1 -16,-1l5 -38c5,0 9,1 14,1zm-31 -3l-6 37c-5,-1 -9,-1 -13,-2l7 -38c4,1 8,2 12,3zm-32 -7l-9 37c-5,-2 -11,-3 -16,-5l11 -36c5,1 10,3 14,4zm-30 -10l-12 37c-4,-2 -9,-4 -13,-5l14 -36c3,2 7,3 11,4zm-27 -10l-15 35c-5,-3 -10,-5 -14,-7l16 -35c5,3 9,5 13,7zm-27 -14l-18 33c-8,-4 -16,-9 -23,-14l20 -32c7,5 14,9 21,13zm-34 -22l-22 31c-4,-3 -9,-6 -13,-9l23 -31c4,3 8,6 12,9zm-25 -19l-24 29c-4,-3 -7,-6 -10,-9l25 -28c3,3 6,5 9,8zm-22 -21l-27 27c-4,-4 -8,-8 -12,-12l28 -26c4,4 7,7 11,11zm-20 -22l-29 25c-3,-4 -6,-7 -8,-11l29 -23c3,3 6,6 8,9zm-18 -23l-31 23c-3,-5 -5,-9 -8,-13l31 -21c3,3 6,7 8,11zm-16 -25l-33 19c-4,-7 -9,-15 -13,-23l34 -18c4,8 8,15 12,22zm-19 -36l-34 15c-3,-4 -5,-9 -7,-14l36 -14c2,4 3,8 5,13zm-11 -29l-36 13c-2,-5 -3,-9 -4,-13l36 -12c1,4 3,8 4,12zm-10 -200l-37 -8c1,-6 2,-11 4,-16l37 10c-2,5 -3,9 -4,14zm8 -27l-37 -11c2,-5 3,-9 4,-13l36 13c-1,4 -2,7 -3,11zm9 -26l-35 -15c2,-5 4,-10 6,-14l35 16c-2,4 -4,8 -6,13zm13 -28l-34 -18c4,-7 9,-15 13,-23l33 20c-4,7 -8,14 -12,21zm21 -35l-32 -21c3,-4 6,-9 9,-13l31 22c-3,4 -6,8 -8,12zm18 -25l-30 -24c3,-3 6,-7 9,-10l29 25c-3,3 -5,6 -8,9zm16 -19l-28 -25c4,-4 7,-8 11,-12l27 27c-3,3 -7,7 -10,10zm23 -23l-25 -28c3,-3 6,-6 10,-9l24 29c-3,3 -6,6 -9,8zm22 -18l-23 -31c4,-3 9,-6 13,-9l22 31c-4,3 -8,6 -12,9zm25 -18l-20 -32c7,-5 15,-10 23,-14l18 34c-7,3 -14,8 -21,12zm36 -20l-17 -34c5,-3 9,-5 14,-7l16 35c-5,2 -9,4 -13,6zm28 -13l-14 -35c4,-2 9,-3 13,-5l12 36c-3,1 -7,3 -11,4zm26 -9l-11 -36c6,-2 11,-3 16,-5l10 37c-5,1 -10,3 -15,4zm31 -8l-8 -37c5,-1 9,-2 14,-3l6 38c-4,1 -8,1 -12,2zm29 -5l-5 -37c5,-1 11,-2 16,-2l3 38c-5,0 -10,1 -14,1zm30 -2l-1 -38c5,0 11,-1 16,-1 4,0 7,1 11,1l-1 38c-4,0 -7,0 -10,0 -5,0 -10,0 -15,0zm41 1l3 -38c5,0 11,0 16,1l-5 38c-4,-1 -9,-1 -14,-1zm31 3l6 -37c5,0 9,1 14,2l-8 37c-4,0 -8,-1 -12,-2zm27 6l10 -37c5,1 10,2 16,4l-11 36c-5,-1 -10,-2 -15,-3zm32 9l13 -36c4,1 8,3 12,4l-13 36c-4,-1 -8,-3 -12,-4zm27 10l16 -34c5,2 9,4 14,6l-17 34c-4,-2 -8,-4 -13,-6zm28 14l18 -34c8,5 16,9 24,14l-21 32c-7,-4 -14,-8 -21,-12zm35 21l22 -31c4,3 8,6 12,10l-23 30c-4,-3 -8,-6 -11,-9zm24 19l25 -29c4,3 7,6 10,9l-25 28c-3,-2 -7,-5 -10,-8zm19 17l27 -27c4,4 8,8 11,12l-27 26c-4,-4 -7,-7 -11,-11zm23 24l29 -25c3,4 6,7 8,10l-29 24c-3,-3 -6,-6 -8,-9zm18 23l31 -23c3,5 6,9 9,13l-32 21c-3,-4 -5,-8 -8,-11zm17 25l33 -20c4,8 9,16 13,24l-34 17c-4,-7 -8,-14 -12,-21zm19 36l35 -16c2,5 4,10 6,15l-35 14c-2,-4 -4,-9 -6,-13zm12 29l36 -13c2,4 3,8 4,12l-36 12c-1,-4 -2,-7 -4,-11z"/>
   <path class="fil3" d="M1181 846c184,0 334,150 334,335 0,184 -150,334 -334,334 -185,0 -335,-150 -335,-334 0,-185 150,-335 335,-335z"/>
   <path class="fil2" d="M1210 1453c-10,1 -17,-1 -22,-7 1,-4 5,-7 8,-7 5,2 14,11 14,14z"/>
   <path class="fil1" d="M1136 1446c-17,10 -44,10 -59,13 7,2 26,5 38,3 7,-1 16,-3 22,-6 10,-7 25,-21 26,-21 8,7 27,20 35,6 3,-6 1,-8 1,-13 0,-3 -1,-9 -2,-12 -1,-4 -3,-8 -7,-10 -7,-2 -9,-2 -16,5 -4,4 -8,9 -11,14 -7,9 -19,16 -27,21zm225 -124c-3,4 -7,10 -8,14 -5,9 -6,21 -5,31 1,8 5,19 12,22 9,4 22,1 30,-3 16,-9 32,-19 38,-36l-13 10 -1 -1c1,3 -18,14 -22,16 -7,4 -17,7 -26,2 -17,-10 -10,-28 -8,-34 1,-6 13,-22 22,-26 0,-7 1,-15 -10,-10 -5,2 -7,3 -11,5 -23,11 -33,11 -30,20l4 9c3,-8 22,-15 28,-19zm-293 -368l-4 19 84 -69 4 -20 -84 70zm-68 64c0,1 31,18 34,20l18 -33c-2,0 -17,-8 -20,-10 -6,-3 -9,-5 -15,-7 -2,3 -17,27 -17,30zm-50 4c0,4 30,19 33,20 1,-2 9,-17 9,-18 3,-3 8,-14 7,-16 0,-1 -30,-19 -33,-19 -1,0 -7,15 -9,18 -2,2 -8,14 -7,15zm183 -43l-3 19 103 -82 4 -20 -104 83zm62 32c-7,-3 -19,-18 -18,-24 -8,4 -10,7 -7,13 8,16 13,24 23,26 14,3 22,-14 22,-22 10,9 19,3 22,-5 2,-6 3,-12 2,-16 -2,-9 -11,-19 -14,-23 -3,2 -6,4 -5,9 0,4 3,8 8,13 3,3 4,3 6,7 -3,3 -10,7 -12,7 -7,0 -16,-21 -16,-20 -1,-1 -3,-1 -3,-1 -2,2 -3,4 -4,7 0,7 7,16 11,22 -3,4 -9,10 -15,7zm59 -57c1,4 8,12 16,15 -4,18 -16,37 -23,50 -8,12 -15,20 -16,21 -4,4 -17,17 -19,21 3,-1 18,-11 24,-18 14,-15 38,-47 43,-71 7,2 6,2 10,7 2,-7 5,-12 3,-19 0,-3 -4,-4 -7,-6 1,-7 2,-9 2,-19 0,-13 -5,-30 -13,-32 -17,2 -23,25 -24,35 -1,9 2,11 4,16zm22 -2c-5,-2 -7,-3 -12,-5 -5,-3 -9,-3 -8,-9 1,-8 15,-17 19,-18 4,1 4,7 4,13 0,5 -1,11 -3,19zm-274 160c4,-13 19,-17 27,-7 4,14 5,24 12,38 8,15 38,34 78,18 3,15 6,31 8,47 1,12 0,28 -5,41 -5,14 -26,40 -47,63 -8,9 -27,24 -53,29 -21,3 -40,-2 -53,-14 -12,-10 -20,-27 -22,-45 -1,-10 -2,-20 -4,-22 -5,11 -11,74 11,101 10,12 32,28 52,28 35,0 66,-29 92,-72 16,-26 31,-56 35,-62 9,56 21,95 66,134 29,25 75,52 115,55 3,-12 9,-36 11,-47 -6,2 -74,-21 -74,-39 0,-23 69,-53 90,-63 37,-18 78,-32 118,-44 6,-2 22,-41 23,-47 -30,-1 -61,-3 -92,-5 -44,-3 -163,-8 -163,-12 0,-18 103,-75 112,-80 4,8 9,18 11,22 1,3 5,17 7,18 2,-3 2,-15 0,-19 -1,-4 -5,-20 -8,-26 17,-9 31,-18 41,-25 15,-9 22,-23 23,-40 0,-11 1,-35 -7,-42 -22,-20 -59,-36 -75,-40 -14,-3 -29,7 -29,24 -1,9 -1,18 -1,27 1,9 2,19 4,29 4,12 10,21 15,33 -47,30 -92,61 -139,117 -5,5 -14,38 -15,50 25,3 51,3 78,5 34,3 69,7 103,8 -30,15 -60,27 -83,49 -18,16 -23,30 -25,54l-1 13c-46,-20 -79,-72 -85,-122 -4,-30 -5,-67 -9,-91l-1 -4c9,-8 17,-20 20,-28 4,-12 5,-18 5,-30 -1,-13 -14,-37 -28,-50l-8 33c8,3 17,19 22,33 -5,7 -11,13 -16,17 -6,-23 -13,-44 -23,-69 -1,-3 -16,-32 -22,-33l-11 37c16,35 26,59 31,79l0 0c-2,1 -3,1 -5,2 -21,6 -45,2 -59,-17 -7,-9 -9,-17 -11,-27 -1,-8 -3,-24 -7,-27 -12,-3 -19,6 -21,10 -8,16 -28,51 -32,58 -11,16 -20,23 -37,27 -17,3 -28,-17 -33,-29 -2,-5 -6,-20 -7,-23 -2,12 -1,34 4,50 4,12 13,28 25,32 31,10 61,-49 72,-80zm315 -78c-3,-9 -6,-18 -6,-20 1,-6 4,-8 14,-8 22,-1 49,5 65,20 -2,3 -15,11 -29,20 -14,8 -27,16 -31,16 -6,-10 -12,-27 -13,-28zm-128 89l-8 24 100 -76 5 -23 -97 75zm-122 94c0,-1 -35,-12 -39,-12l1 1 -13 35 39 12c0,-4 12,-33 12,-36zm51 -17c-5,-2 -32,-12 -36,-11 -3,0 -13,31 -13,35 2,0 16,5 20,6 5,1 16,6 18,4 1,-4 3,-11 6,-18 1,-4 6,-15 5,-16zm-82 224c-1,8 -2,16 -3,25 36,-27 70,-53 107,-79l2 -24c-37,26 -73,54 -106,78z"/>
   <path class="fil2" d="M598 1335l1 6 23 15 5 5 7 -2 0 -1c-5,-2 -8,-4 -15,-8 -15,-10 -20,-14 -21,-15zm409 283l4 4 27 -1 7 1 5 -5 -1 -1c-5,1 -9,2 -16,2 -18,0 -25,-1 -26,0zm89 29l6 2 24 -13 6 -2 2 -8 -1 0c-4,3 -7,6 -14,9 -16,9 -22,11 -23,12zm1 10l5 2 24 -13 7 -2 2 -7 -1 -1c-4,4 -8,6 -14,10 -16,8 -22,10 -23,11zm70 -8l5 1 24 -13 6 -2 3 -7 -1 -1c-5,4 -8,6 -14,10 -16,8 -22,11 -23,12zm44 2l6 1 25 -22 6 -3 0 -8 -1 0c-3,4 -9,9 -15,14 -13,12 -21,17 -21,18zm142 -41l6 0 21 -26 5 -5 -1 -7 -1 0c-3,5 -8,11 -12,17 -11,14 -17,20 -18,21zm53 -26l5 -2 15 -24 5 -5 -2 -8 -1 0c-2,6 -6,12 -10,19 -10,15 -12,18 -12,20zm180 -173l4 -4 3 -33 2 -7 -5 -5 -1 0c1,6 0,13 -1,21 -1,18 -3,26 -2,28zm30 -58l4 -4 3 -33 2 -6 -5 -6 -1 1c1,5 0,13 -1,21 -1,18 -3,26 -2,27zm-108 165l5 -2 15 -37 3 -7 3 -4 -4 -9 -1 0c-3,15 -25,60 -21,59zm-694 -128l-6 -2c-4,11 -16,19 -23,21 5,2 13,0 20,-6 4,-3 8,-9 9,-13zm385 303c-3,1 -6,0 -7,-1 -2,-2 -2,-3 -3,-6 -2,1 -2,5 -1,8 0,1 -5,2 -8,0 -4,-2 -3,-7 -3,-9 -2,2 -3,4 -2,7 0,8 4,9 6,10 4,1 9,1 10,-3 3,2 6,2 9,1 1,0 2,-4 2,-7 1,-3 1,-9 -5,-12 -1,3 -1,2 -1,5 0,1 4,4 3,7zm184 -77c-3,2 -6,3 -7,2 -2,-1 -3,-2 -6,-5 -1,2 1,6 4,8 -1,2 -4,4 -8,4 -5,-1 -6,-6 -7,-7 0,1 0,4 1,6 4,8 8,7 10,7 4,0 8,-2 8,-6 3,0 6,0 8,-3 1,0 1,-4 0,-7 -1,-3 -3,-9 -9,-9 0,3 -1,2 0,5 1,0 5,2 6,5zm-603 -190c-2,-2 -3,-6 -2,-7 0,-2 1,-3 4,-6 -2,-1 -6,1 -8,4 -1,0 -4,-4 -3,-7 0,-5 5,-7 6,-7 -2,-1 -4,-1 -6,1 -8,4 -7,8 -7,10 1,4 3,8 7,8 0,3 1,6 3,8 1,1 5,0 8,-1 2,-1 8,-4 8,-10 -3,0 -2,-1 -5,1 -1,1 -2,5 -5,6zm146 134c2,-2 4,-3 6,-2 3,0 9,2 12,4 -2,4 -4,5 -7,6 -4,1 -8,0 -11,1 2,1 8,2 12,0 5,-2 6,-3 8,-7l3 -6c-5,-2 -9,-3 -13,-3 -3,0 -10,5 -10,7zm632 -134c0,-2 0,-4 2,-6 2,-2 7,-6 10,-7 3,3 1,4 0,8 -1,3 -2,8 -3,10 1,-1 3,-5 5,-10 2,-3 1,-6 -1,-10l-3 -6c-5,4 -8,6 -10,9 -2,3 -1,12 0,12zm-696 70c-5,-1 -15,2 -15,7 0,2 1,3 2,5 -8,0 -19,-2 -25,-6 -1,-1 -3,-2 -2,1 3,3 6,5 11,6 5,2 11,3 17,2l1 2 10 -2c0,-1 -1,-1 0,-2 6,-2 9,-2 11,-7 1,-5 -7,-6 -10,-6zm0 9c0,1 -1,2 -3,2 -2,-3 -4,-8 -1,-9 3,-1 4,5 4,7zm123 78c-4,2 -12,8 -9,13 1,2 2,3 4,4 -8,4 -18,8 -25,6 -2,0 -4,0 -2,3 4,0 8,0 13,-1 5,-1 11,-3 16,-6l2 1 8 -6c-1,-1 -1,-1 -2,-2 5,-4 8,-6 7,-11 -2,-5 -9,-3 -12,-1zm4 8c1,1 1,2 -1,3 -3,-1 -7,-5 -5,-7 2,-2 6,2 6,4zm277 28c-3,3 -6,13 -1,16 1,1 2,1 5,1 -5,7 -12,15 -18,18 -2,0 -4,2 -1,3 4,-2 8,-4 11,-7 4,-3 8,-8 11,-14l2 0 4 -9c-1,0 -2,0 -2,-1 1,-6 3,-9 -1,-13 -3,-3 -8,2 -10,6zm8 4c1,1 1,2 0,3 -3,1 -9,0 -8,-3 1,-3 6,-1 8,0zm173 -87c0,5 4,14 9,13 2,0 3,-1 5,-2 1,8 1,19 -2,25 -1,2 -2,4 1,3 2,-4 4,-8 4,-12 1,-5 1,-12 -1,-18l3 -1 -4 -10c-1,1 -1,1 -2,1 -3,-5 -3,-9 -8,-10 -6,0 -6,7 -5,11zm9 -1c1,0 2,0 2,2 -2,3 -7,5 -8,2 -1,-3 4,-4 6,-4zm100 -90c6,9 6,12 11,16l17 -4c-4,-6 -8,-11 -10,-18l-18 6zm-175 184c0,5 -4,18 3,20 15,7 12,3 12,-10l0 -4c0,-4 -12,-7 -15,-6zm202 -181l9 15c-3,-2 -4,-3 -6,-3 -5,2 -8,4 -13,7 3,6 7,15 12,16 5,1 10,-3 14,-5 -2,-5 -4,-10 -7,-14 2,1 3,0 9,-1 3,-2 9,-3 9,-5 0,-1 -9,-12 -10,-16l0 -1 -17 7z"/>
   <path class="fil2" d="M1230 1722l2 -3 2 4c4,9 11,13 20,14 7,1 16,-1 23,-6 2,-2 6,-4 10,-6 -8,0 -16,-2 -23,-3 -4,-1 -7,0 -10,2l-6 3 1 -6c1,-12 1,-15 7,-25 6,-9 18,-22 26,-28 0,-3 0,-5 0,-8 0,-7 -1,-18 6,-23 6,-5 11,0 17,3 4,2 10,6 13,9 5,5 2,18 3,24l0 3 -3 0c-5,2 -14,6 -19,9 -3,1 -12,7 -17,12 13,2 27,4 41,4 9,0 18,-1 27,-2l5 0 -2 5c-4,9 -4,20 -16,24 -9,4 -19,6 -28,9 -13,5 -27,14 -39,22 -12,8 -25,7 -36,-1 -4,5 -14,8 -19,8 -7,0 -16,-3 -20,-9 -3,3 -6,7 -9,10 -12,11 -41,9 -40,-12 0,-4 -1,-10 -1,-15 -11,17 -26,30 -48,23 -10,-3 -15,-11 -15,-22 0,-6 4,-20 8,-23l6 -6 -1 8c-1,5 -2,14 3,17 8,3 24,0 30,-4 6,-4 9,-7 13,-11 -3,-15 -7,-29 -10,-43l0 -1 8 -32 3 12c3,14 6,28 10,42 2,11 5,25 6,36 0,8 3,10 11,10 7,0 20,-4 24,-10 5,-6 12,-18 18,-22l0 0 1 -1c8,-2 12,4 18,9zm404 -247l-17 -8 -8 -20 2 -1c3,-2 16,5 20,6 5,3 12,8 16,13 2,4 9,14 9,18 1,13 -12,21 -23,21 -2,0 -3,-1 -4,-1 2,8 2,15 -6,21 -3,3 -7,4 -11,4 -2,-1 -3,-1 -5,-2 -4,-1 -9,-5 -12,-6 -3,0 -6,1 -8,3 -2,2 -5,6 -4,9 5,11 15,17 27,17 3,1 6,-4 8,-6l4 -3 11 27 -1 1c-5,5 -14,8 -21,9 -11,1 -25,-2 -35,-8 0,2 0,3 0,4 1,7 -2,15 -5,22 -5,10 -11,20 -24,20 -4,0 -7,-1 -10,-2 3,6 1,19 -1,25 -3,15 -7,30 -26,30 -11,0 -27,-26 -28,-36l-1 -10 9 12 0 0c1,3 5,7 8,8 7,4 13,1 16,-6 5,-11 7,-21 7,-33 0,-4 1,-4 -2,-6 -9,-6 -27,-26 -39,-24l-2 1 -8 -21 2 -1c6,-4 16,-1 22,4 6,5 36,31 42,33 6,1 11,-1 15,-5 6,-7 11,-29 10,-37 -1,-5 -3,-8 -5,-12l-1 -3 3 -1c7,-3 9,10 14,13 2,2 6,4 10,5 -2,-3 -5,-7 -6,-10 -3,-5 -5,-9 -7,-14 -5,-15 3,-28 17,-32l2 0 6 6c2,3 10,6 13,3 3,-2 8,-7 6,-11 -3,-4 -5,-8 -7,-12l-2 -3 3 -2c5,-2 10,3 15,4 3,1 12,1 12,-3zm-741 159c-7,-4 -18,-9 -18,-19 0,-7 9,-15 15,-20 5,-5 16,-13 24,-11 4,1 5,7 6,11 0,8 -1,14 -4,22 2,1 5,2 7,3 6,3 11,7 19,5l23 -10 -3 8c-4,8 -10,14 0,19 1,1 6,2 7,2 4,0 10,-8 14,-10l6 -5 -2 8c0,3 -1,6 -1,9 0,4 2,6 5,8 1,-4 2,-8 2,-12l1 -1 0 -1c5,-4 7,-4 13,-8l7 -5 -8 33 -1 1c-2,3 -5,5 -7,8 -3,4 -10,9 -16,8 -8,-2 -15,-7 -17,-15 -2,1 -4,2 -8,2 -7,0 -22,-5 -22,-14 0,-3 1,-5 2,-8 -4,2 -9,2 -13,2 -6,0 -15,-3 -20,-5 -8,6 -26,20 -34,21 -10,1 -23,2 -33,-1 -17,-6 -24,-19 -21,-36 2,-11 16,-29 28,-29l13 1 -11 5c-6,3 -10,14 -10,20 0,10 10,16 18,19 8,2 15,2 24,2 4,0 14,-2 15,-7zm793 -294c1,8 -2,19 -7,23l0 1 0 0c-6,3 -10,3 -16,0 -9,-5 -22,-17 -27,-25l-1 -1 0 0c-3,-10 5,-14 13,-15 6,-1 11,-1 17,-1l3 -6 7 6 6 1c9,0 37,20 42,28 9,18 14,55 7,74 -5,13 -22,16 -34,14 -14,-2 -37,-12 -44,-25l-4 -7 8 3c15,5 22,16 40,11 10,-5 13,-31 14,-41 1,-10 -2,-36 -13,-39 -3,-1 -7,-1 -11,-1zm-255 334c-14,-13 -21,-15 -21,-35l0 -9 4 1c7,1 19,15 23,21 2,2 3,7 3,10 1,7 1,14 1,21 0,5 -2,16 -4,20 -8,13 -23,27 -38,29 -22,4 -35,-11 -40,-31 -2,-6 -7,-33 -5,-38l2 -7 4 6c1,3 4,16 5,21 2,5 6,13 10,17 7,8 22,6 31,2 9,-4 15,-11 21,-19 1,-1 6,-7 4,-9zm-385 73c-3,-5 3,-12 4,-17 5,-17 7,-33 10,-50 1,-9 2,-19 3,-28 0,-6 0,-11 6,-15 4,-4 7,-8 12,-11l5 -4 -3 25c-2,17 -3,38 -8,54 -5,18 -8,36 -25,47l-2 2 -2 -3zm-41 -28c-14,5 -21,6 -36,6 -13,1 -46,-6 -48,-22l0 -7 11 8c16,10 40,7 58,3 7,-1 16,-6 23,-9 12,-5 6,-6 9,-18 0,-5 1,-13 4,-17 3,-4 7,-5 12,-7l3 -1 2 7 -1 2c-2,2 -3,18 -5,23 -2,4 -11,14 -14,18 -7,7 -8,10 -18,14zm417 -129l1 -28 6 9c8,14 18,27 26,40 9,15 19,29 28,45l1 1 -1 28 -6 -8c-14,-21 -27,-42 -41,-63 -2,-3 -13,-17 -14,-20 0,-1 0,-2 0,-4zm261 -148c8,4 10,11 12,19l3 8 -8 -4c-17,-11 -34,-22 -51,-32 -8,-5 -33,-18 -38,-25 -1,-1 -2,-2 -2,-3 -3,-4 -4,-9 -4,-14l0 -6 5 4c14,10 28,19 42,27 14,9 28,17 41,26zm-384 220l-11 6c0,-11 4,-9 11,-6zm355 -316c-3,-1 -1,-8 12,-8 1,0 0,3 -1,4 -1,5 -9,7 -11,4zm-443 395c8,6 12,-1 12,-3 -3,-5 -11,-7 -13,-7 -1,2 -2,8 1,10zm-317 -138c0,-4 11,-2 7,7 -2,-2 -7,-4 -7,-7zm-92 -14c2,0 4,-1 6,-3 12,-12 22,-22 34,-36 3,-3 16,-15 16,-18 1,-6 1,-8 7,-13 5,-5 18,-8 25,-8l7 -1 -4 6c-3,4 -6,1 -8,7 0,1 1,8 1,9 0,8 -5,13 -13,15 -6,1 -8,4 -12,8 -6,6 -12,12 -18,18 -8,8 -18,17 -29,21 -8,3 -20,9 -29,9 -20,-2 -42,-14 -44,-36 -2,-18 16,-35 35,-32l16 2 -16 4c-5,1 -11,8 -10,13 1,19 17,35 36,35zm-115 -138c-3,-1 -7,-2 -11,-5 -9,-5 -18,-17 -22,-28 -6,-14 -15,-30 -10,-46 2,-7 7,-10 12,-12 -13,-4 -29,-10 -27,-26 2,-19 37,-13 49,-5 5,5 10,9 14,14l8 -1 15 5 0 2c5,9 -18,12 -24,15 -11,5 -21,4 -24,18 -2,13 7,28 13,40 5,9 13,16 21,22 3,-1 5,-2 11,-4 3,-2 6,-4 10,-5 11,-5 9,-7 22,-5l19 2 -9 5c-5,3 -11,4 -16,7 -8,5 -17,9 -26,13 -3,2 -8,7 -8,12 0,3 1,7 3,9 5,0 10,-4 14,-7 6,-6 14,-14 21,-19l0 0 0 0c10,-4 18,-2 28,0l10 1 -9 4c-6,4 -12,6 -17,11 -6,7 -14,11 -21,17 -7,4 -17,5 -25,5 -6,-1 -15,-3 -21,-7 -5,-3 -8,-9 -8,-15 -1,-8 3,-13 8,-17zm-33 -116c3,-15 23,15 26,18 -13,6 -27,-11 -26,-18zm150 133l17 2 15 1 -9 5c-18,9 -36,18 -54,26 -10,5 -19,10 -30,14 -12,4 -19,5 -32,2l-2 -1 0 -6 3 0c6,-1 11,-2 16,-5 11,-5 22,-11 33,-16 14,-7 28,-14 42,-21l1 -1z"/>
   <path class="fil2" d="M715 878c-1,3 -3,6 -5,6 -1,1 -3,1 -6,0 0,2 4,4 7,4 1,1 0,6 -3,7 -5,3 -8,0 -10,0 1,1 2,3 5,4 7,4 10,0 12,-1 2,-3 4,-7 2,-10 3,-2 4,-4 5,-8 0,-1 -3,-3 -6,-5 -2,-2 -8,-5 -13,-1 3,3 1,3 4,4 1,0 5,-2 8,0zm-85 87c2,4 9,12 14,9 2,-1 2,-2 4,-3 3,7 7,17 6,24 0,1 0,4 2,2 1,-4 1,-8 0,-13 -1,-5 -3,-11 -7,-16l2 -2 -7 -8c-1,1 -1,2 -1,2 -5,-5 -7,-8 -12,-6 -5,1 -2,8 -1,11zm8 -4c1,-1 3,0 3,1 -1,3 -4,7 -7,5 -2,-2 3,-6 4,-6zm448 -212l6 2 36 -16 8 -2 5 -1 3 -9 -1 -1c-13,9 -60,25 -57,27zm-172 75l5 0 29 -26 4 -4 5 -3 0 -9 -1 -1c-9,13 -46,43 -42,43zm-119 -61l6 -1 21 -33 5 -7 3 -4 -2 -9 -1 0c-6,15 -36,55 -32,54zm113 -82l6 0 27 -28 6 -6 4 -3 0 -10 -1 0c-9,13 -46,47 -42,47zm436 -56c2,-2 3,-4 5,-4 4,-1 10,-1 13,1 0,4 -1,4 -4,6 -3,3 -8,4 -10,5 2,1 7,-1 11,-4 4,-3 5,-4 5,-8l1 -7c-5,0 -10,0 -13,1 -3,1 -8,8 -8,10zm-132 -13l5 3 37 -12 8 -2 5 -1 4 -9 -1 -1c-14,8 -62,21 -58,22zm165 42l4 3 27 -5 8 -1 5 -1 5 -8 0 -1c-15,7 -52,11 -49,13zm147 51c-4,2 -12,8 -10,13 1,2 2,2 4,4 -7,4 -17,7 -24,6 -2,0 -4,0 -2,2 4,1 8,1 13,0 5,-1 11,-3 16,-7l2 2 8 -6c-1,-1 -2,-1 -2,-2 4,-4 8,-6 6,-11 -1,-5 -8,-3 -11,-1zm4 8c1,1 0,2 -1,3 -3,-1 -7,-5 -5,-7 2,-2 5,2 6,4zm183 270l1 6 20 18 5 5 3 4 10 0 1 -1c-14,-8 -40,-36 -40,-32zm-1043 -108l2 5c11,-5 25,-1 31,4 -2,-6 -9,-10 -17,-12 -5,0 -13,1 -16,3zm365 -264c6,7 8,9 10,14 2,6 1,10 1,15 0,3 -1,6 1,10 1,-2 5,-13 4,-22 0,-7 -1,-13 -12,-22l-4 5zm693 341l-12 -6 -5 0c3,5 8,8 12,8l10 0c13,0 -3,-13 -3,-18l-14 0c2,2 11,6 12,16zm-882 -190c-3,2 -6,2 -8,1 -2,0 -3,-1 -5,-4 -1,2 1,6 3,8 0,1 -4,4 -7,3 -5,-1 -6,-5 -7,-7 -1,2 -1,4 0,7 4,7 8,7 10,7 4,-1 9,-3 9,-7 3,1 5,0 8,-2 1,-1 1,-5 -1,-8 -1,-3 -3,-8 -9,-9 0,4 -1,3 1,5 0,1 5,3 6,6zm835 94c-30,-21 -64,-38 -96,-52l-9 1c15,8 91,45 95,54l10 -3zm-2 75l1 17 21 -8 -2 -18 -1 0c-5,0 -16,4 -19,9zm-6 25l0 6 1 13 9 -1c5,0 10,-1 11,-4 1,-1 -1,-16 -3,-19l-13 3 2 -3c-2,-3 -3,-13 -3,-16 -1,-5 -12,1 -15,3 -9,4 -4,10 -3,18 1,10 4,1 14,0z"/>
   <path class="fil2" d="M855 806c-27,-2 -52,-3 -79,-7 -12,-2 -18,-9 -26,-18l-2 -2 4 -5 2 1c10,3 15,4 25,5 26,3 51,6 76,9 3,-16 6,-32 8,-49 2,-11 3,-22 5,-33 0,-5 1,-16 7,-17l1 0 1 0c4,2 3,19 2,23 -2,26 -8,52 -12,78 9,3 19,11 23,18 7,11 6,24 -1,35 -6,9 -15,10 -22,2 -8,-8 -11,-20 -12,-31 0,-3 0,-6 0,-9zm482 -120c3,-9 8,-13 14,-20l2 -2 18 16 -18 20 -2 -1c-4,-4 -9,-6 -14,-10l-1 -1 1 -2zm103 -31c4,3 -1,13 -2,17 -4,13 -27,94 -37,97l-13 5 -2 -3c-1,-3 5,-12 7,-16 6,-14 10,-28 15,-42 3,-9 5,-18 8,-26 3,-10 4,-19 11,-25 3,-3 7,-4 9,-7l2 -1 2 1zm-329 53c-4,-26 -12,-53 -15,-79 0,-6 5,-20 10,-23l5 -4 0 7c-1,8 13,87 16,93l1 1 -8 25 -6 1 -3 -21zm-175 82c-7,-14 -13,-29 -22,-43 -6,-11 -12,-21 -18,-32 -3,-4 -5,-9 -6,-14 0,-1 0,-2 0,-2l2 -16 3 0c3,0 5,4 6,6 3,5 6,10 9,16 8,13 15,26 22,39 4,6 12,19 13,25l0 0 0 1c0,7 0,14 -3,20l-3 6 -3 -6zm-107 97c-24,-21 -55,-41 -82,-59 -7,-4 -12,-18 -8,-25l2 -4 3 2c4,3 8,7 12,11 13,9 26,18 39,27 9,6 33,21 36,30 2,4 3,11 4,16l0 7 -6 -5zm898 145c-17,1 -34,8 -50,12 -17,5 -33,12 -50,16l-1 0 -22 -9 3 -3c2,-4 18,-8 22,-9 23,-7 45,-14 68,-20 7,-1 3,-7 17,-3 7,3 12,4 15,11l2 4 -4 1zm-361 -295c0,0 0,-2 0,-3l0 -18 12 -16c4,-4 9,0 9,6 0,5 -1,10 -1,15 -1,8 -3,13 -9,19 -4,5 -9,11 -13,16 -12,12 -59,7 -74,1 -9,-3 -25,-9 -27,-20 -4,-16 1,-25 7,-39 3,-5 12,-19 17,-23l5 -3 -1 6c-1,13 -11,22 -11,33 0,16 23,24 35,26 14,3 31,5 45,2 1,0 5,-1 6,-2zm-151 -50c-25,-23 -54,-44 -77,-68 -9,-10 -8,-19 -9,-31l-1 -2 6 -2 2 2c5,9 8,13 16,20 23,24 49,45 74,68 11,-12 21,-23 32,-34 5,-6 10,-11 14,-17 4,-4 18,-22 25,-19l1 0 0 1c2,4 -9,17 -11,20 -18,19 -36,38 -53,58 4,8 7,21 7,29 -2,13 -11,22 -24,26 -9,3 -17,-2 -18,-12 -1,-12 4,-22 10,-32 2,-2 4,-5 6,-7zm-132 -44c4,13 7,27 10,40 2,7 3,14 2,21 0,6 -3,14 -5,20 -3,10 -5,13 -13,20 -15,13 -44,20 -64,20 -10,0 -17,-5 -22,-13 0,2 -1,4 -2,6 -4,11 -13,24 -27,22 -6,-1 -9,-5 -9,-12 0,-6 1,-13 3,-19 1,-6 3,-14 7,-19 3,-7 11,-11 17,-15 0,0 1,0 1,0 -1,-3 -2,-4 -2,-7 0,-5 6,-16 8,-21l2 -5 3 5c6,10 7,23 10,34 2,6 4,14 10,16 16,6 42,-4 56,-11 5,-3 9,-6 13,-9 -1,-12 -4,-24 -7,-35 -2,-11 -4,-24 -8,-34 -2,-6 -13,-7 -9,-22 2,-4 6,-13 8,-16l6 -8 0 9c0,3 1,8 3,10 5,3 9,0 12,10 1,3 -2,9 -3,13zm-321 282c-3,-2 -7,-3 -10,-5 -5,-2 -22,-9 -25,-12 -5,-5 -7,-10 -10,-15l-1 -2 4 -5 3 1c11,8 40,23 53,27 8,1 12,-7 13,-13l0 -3 0 0c-7,-1 -18,-5 -25,-7 -7,-2 -26,-8 -31,-13l0 0 -12 -20 5 -3 2 1c14,10 26,11 41,16 6,2 10,4 15,7 5,3 16,17 20,23 4,6 6,11 4,18 -2,8 -6,15 -15,16 -4,0 -7,-1 -10,-2 3,9 4,18 4,27 0,23 -16,51 -42,51 -2,0 -3,0 -5,0 4,6 7,13 7,19 0,11 -3,25 -17,21 -8,-3 -17,-14 -23,-20 -7,-9 -5,-23 -6,-34 0,-2 -3,-4 -4,-5l-1 0 0 -1c-3,-5 -5,-11 -5,-17l-1 -5 5 2c11,6 24,15 36,18 13,4 23,-10 28,-20 4,-6 7,-16 7,-23 0,-4 -2,-20 -4,-22zm720 -135c4,-7 19,-25 22,-29 2,-3 10,-14 10,-17l0 -1 0 0c2,-6 15,-9 20,-7l1 1 0 2c0,6 0,7 -3,12 -9,15 -36,39 -36,56 0,19 21,33 36,42 17,10 39,20 60,20 10,0 10,0 20,-3l7 -2 -4 7c-7,14 -23,17 -36,26l15 -1 0 0c7,0 11,0 18,3 12,4 50,41 21,46 -4,1 -8,2 -9,7 -1,5 2,13 6,16 2,1 5,0 7,0 5,0 9,0 14,1l9 -1 -4 6c-5,7 -16,6 -20,11 -2,4 -2,10 0,14l12 -8 15 0c4,0 4,0 8,3l2 1 -3 5 -2 0c-3,0 -14,10 -18,12 -8,3 -16,1 -24,2 -18,2 -26,-26 -13,-36 -2,-1 -6,-2 -9,-5 -4,-4 -5,-10 -7,-14 -7,-18 15,-19 18,-23 1,-3 -6,-14 -8,-16 -3,-4 -9,-10 -13,-12 -13,-4 -26,3 -27,17l0 3 -3 0c-8,0 -16,1 -23,-3l-1 -1 0 -2c1,-8 4,-18 8,-24 3,-6 8,-9 12,-13 -17,-4 -37,-14 -52,-22 -12,-7 -37,-27 -37,-42 0,-2 1,-10 1,-13 -2,0 -7,0 -8,0 -15,0 -36,-5 -46,-18 -7,-10 -6,-19 1,-30 4,-9 20,-20 29,-18l15 2 -14 4c-19,5 -10,30 4,36 8,4 20,6 29,6zm-616 17c0,5 1,16 4,17 3,1 5,-1 6,-3 1,-3 3,-7 1,-10 -2,-3 -7,-4 -11,-4zm357 -112c-3,4 -9,13 -7,16 1,2 4,2 6,1 2,-1 6,-4 7,-8 0,-3 -3,-7 -6,-9zm-238 41c-3,1 -6,1 -9,3 -2,2 -11,10 -11,13 0,2 4,2 6,2 4,-1 7,-5 9,-7 3,-3 5,-7 5,-11zm-262 271c-2,2 -3,5 -3,8 -1,6 1,10 5,13 5,-5 4,-15 -2,-21z"/>
  </g>
 </g>
</svg>
