<?xml version="1.0" encoding="UTF-8" standalone="no"?>
<svg
   xmlns:dc="http://purl.org/dc/elements/1.1/"
   xmlns:cc="http://creativecommons.org/ns#"
   xmlns:rdf="http://www.w3.org/1999/02/22-rdf-syntax-ns#"
   xmlns:svg="http://www.w3.org/2000/svg"
   xmlns="http://www.w3.org/2000/svg"
   version="1.1"
   id="svg4736"
   viewBox="0 0 95.675379 136.89861"
   height="136.89861"
   width="95.675377">
  <defs
     id="defs4738" />
  <metadata
     id="metadata4741">
    <rdf:RDF>
      <cc:Work
         rdf:about="">
        <dc:format>image/svg+xml</dc:format>
        <dc:type
           rdf:resource="http://purl.org/dc/dcmitype/StillImage" />
        <dc:title></dc:title>
      </cc:Work>
    </rdf:RDF>
  </metadata>
  <g
     transform="translate(-344.09088,-846.27003)"
     id="layer1">
    <g
       transform="translate(0.49999845,-0.50001233)"
       id="g5335">
      <path
         d="m 392.68276,919.66016 c 0.0782,0.005 0.15687,0.009 0.23625,0.01 2.913,0.0514 5.34825,-2.7745 3.73575,-6.18812 -0.17687,2.643 -1.33975,4.071 -3.8005,4.071 -0.0585,0 -0.11525,-7.5e-4 -0.1715,-0.002 -0.056,0.001 -0.11312,0.002 -0.17125,0.002 -2.46075,0 -3.62362,-1.428 -3.8005,-4.071 -1.6125,3.41362 0.82275,6.2395 3.73575,6.18812 0.0794,-10e-4 0.158,-0.005 0.236,-0.01 z m 0,-4.20162 c 0.0616,0.005 0.12462,0.007 0.18987,0.007 2.16176,0.0571 2.62026,-2.13338 2.08563,-3.455 -0.343,1.32162 -1.343,1.99312 -2.2755,1.78225 -0.93225,0.21087 -1.93225,-0.46063 -2.27525,-1.78225 -0.53463,1.32162 -0.0765,3.51212 2.08562,3.455 0.0653,0 0.12825,-0.003 0.18963,-0.007 z m 0,-6.53663 c 0.23775,-0.009 0.46375,-0.01 0.675,-10e-4 6.807,0.29875 15.48025,2.63512 19.05688,1.24862 2.45737,-0.95275 6.42474,-3.9295 8.27612,-1.31312 0.56063,0.79199 -1.69475,2.76375 -1.7415,0.43162 -0.91275,-1.878 -2.86475,0.929 -1.44712,2.41938 -5.16538,5.10937 -19.21,-0.71575 -20.55188,-1.0945 -0.38375,-0.10851 -0.59637,0.3 -0.29262,0.8425 0.48962,0.8745 1.99312,2.15187 2.35762,3.49837 0.73525,2.71238 -1.4485,7.06325 -5.8,7.18363 -0.18137,0.005 -0.35862,0.003 -0.5325,-0.006 -0.17362,0.009 -0.35087,0.0113 -0.53262,0.006 -4.35113,-0.12038 -6.53488,-4.47125 -5.79963,-7.18363 0.36463,-1.3465 1.868,-2.62387 2.35763,-3.49837 0.30375,-0.5425 0.0911,-0.951 -0.29263,-0.8425 -1.34188,0.37875 -15.3865,6.20387 -20.55188,1.0945 1.41763,-1.49038 -0.53437,-4.29738 -1.44712,-2.41938 -0.0468,2.33213 -2.30212,0.36037 -1.7415,-0.43162 1.85138,-2.61638 5.81875,0.36037 8.27613,1.31312 3.57662,1.3865 12.24987,-0.94987 19.05687,-1.24862 0.21125,-0.009 0.43725,-0.009 0.67475,10e-4 z m 0,-8.06812 c -0.38162,-0.055 -0.81713,0.10837 -0.8465,0.47975 -0.44013,3.7035 -0.0469,3.15887 -1.327,4.71225 -1.816,2.2035 -3.594,2.0105 -6.45025,2.16912 -2.7,0.15025 -4.8455,0.33213 -5.30438,-0.83125 -0.24237,-0.61437 1.26751,-5.2125 5.44538,-6.05825 1.48463,-0.3005 4.22787,0.43938 4.2265,-0.443 -0.002,-1.5005 -4.11738,-1.053 -5.41213,-0.71962 -4.529,1.1665 -8.35187,3.01425 -11.876,8.12162 6.66563,3.46575 13.82775,0.0652 21.36575,-0.32637 0.0591,0.006 0.119,0.0125 0.17863,0.0185 0.0599,-0.006 0.11975,-0.0128 0.17887,-0.0185 7.538,0.39162 14.70013,3.79212 21.36575,0.32637 -3.52412,-5.10737 -7.347,-6.95512 -11.876,-8.12162 -1.29475,-0.33338 -5.40925,-0.78088 -5.41212,0.71962 -10e-4,0.88238 2.74187,0.1425 4.2265,0.443 4.1775,0.84575 5.68775,5.44388 5.44537,6.05825 -0.45887,1.16338 -2.60437,0.9815 -5.30437,0.83125 -2.85625,-0.15862 -4.63425,0.0344 -6.45025,-2.16912 -1.28013,-1.55338 -0.88688,-1.00875 -1.327,-4.71225 -0.0294,-0.37138 -0.46488,-0.53475 -0.84675,-0.47975 z m 0,-22.13688 c -0.197,-0.11262 -0.3725,-0.50987 -0.38587,-1.15125 -0.0641,-3.03337 -0.85538,-6.25925 -0.54963,-9.79325 0.12437,-1.24587 0.5145,-1.94037 0.9355,-2.104 0.42087,0.16363 0.81137,0.85813 0.93575,2.104 0.30575,3.534 -0.4855,6.75988 -0.54963,9.79325 -0.0134,0.64138 -0.18875,1.03863 -0.38612,1.15125 z m 0,-31.44687 c -4.53725,3.40937 -11.72762,4.15387 -11.60337,12.943 -0.0701,3.48387 1.54737,5.43437 7.61812,5.376 1.81675,-0.0177 1.81987,6.20787 1.766,8.94075 -1.13625,-1.93988 -2.20638,-3.26088 -4.25375,-4.80963 -4.675,-4.084 -6.891,-4.95037 -6.891,-9.9425 0,-3.797 0.93762,-5.00387 2.92675,-7.54937 -6.99413,1.13837 -17.06025,7.13687 -9.65975,14.37975 3.279,3.1865 8.53512,0.61262 12.12912,3.623 2.05163,1.48962 5.94038,5.98187 5.94038,9.06812 l 0.10162,1.818 -0.31637,8.1525 c -0.0323,0.47725 -0.6385,0.38163 -0.64738,-0.0482 0,-8.8065 -4.69525,-15.04875 -12.903,-15.04875 -3.03225,0 -4.77487,0.63038 -7.96987,0.50388 -3.01713,0.0383 -6.57213,-2.36838 -6.69088,-4.9125 -3.3565,3.22512 -2.857,11.076 3.31588,10.42875 3.96887,-0.83775 4.40925,-4.66975 10.11962,-4.66975 3.59013,-0.0224 6.5055,0.0637 9.33525,3.01812 1.23875,1.29375 2.30138,2.51575 2.99413,6.98525 0.0644,1.02475 -0.35762,0.98013 -0.60388,0.42175 -2.11925,-4.80225 -4.32175,-5.97125 -8.22674,-6.136 -6.27913,-0.0383 -11.68663,9.18175 -16.24788,9.18175 -2.08237,0 -3.2885,-0.82275 -4.49537,-2.45862 0.10837,3.82212 0.63462,7.37825 4.75575,7.414 2.5275,0.0379 4.5815,-3.07 5.94675,-5.30688 2.36912,-3.88237 6.89925,-8.41712 11.85737,-7.38912 4.35013,1.14162 6.8715,5.71562 6.8715,12.46712 0,1.34813 -0.54712,3.72363 -2.17162,3.72363 -1.55413,0 -2.11288,-0.37388 -2.11288,-1.89213 0,-2.795 0.9705,-9.40612 -2.209,-9.40612 -1.733,-0.0673 -2.49087,0.95 -2.55187,2.27375 0.006,1.46487 2.90762,2.70212 2.38187,0.41775 -0.16237,-0.70475 0.98325,-0.98926 1.04913,0.0755 -0.0574,2.29288 -2.07075,2.02613 -1.86238,6.96688 0,3.79913 3.01538,3.01425 6.95875,3.03738 3.23675,0.38725 2.0895,3.85537 -0.18175,3.86637 -1.12225,0.0454 -1.48575,-0.63175 -2.23162,-0.73662 -0.62288,-0.0858 -1.23625,0.0896 -1.37588,0.53787 -0.34762,1.87475 2.33575,2.396 4.46313,2.396 1.51625,0.079 -0.58538,1.29012 -1.62775,1.322 -0.72038,0.0222 -0.68913,0.75437 -0.0365,0.77063 3.70487,-0.10413 3.95575,-2.64476 4.6825,-6.06225 0.0659,-0.88475 0.62887,-1.2695 1.65687,-1.32125 1.02825,0.0518 1.59125,0.4365 1.65713,1.32125 0.72637,3.4175 0.97762,5.95812 4.6825,6.06225 0.65237,-0.0163 0.68387,-0.74838 -0.0365,-0.77063 -1.04238,-0.0319 -3.14438,-1.243 -1.62776,-1.322 2.12738,0 4.81075,-0.52125 4.46313,-2.396 -0.14,-0.44825 -0.753,-0.62363 -1.37588,-0.53787 -0.74587,0.10487 -1.10937,0.78199 -2.23162,0.73662 -2.27125,-0.0113 -3.4185,-3.47912 -0.18175,-3.86637 3.94337,-0.0231 6.95875,0.76175 6.95875,-3.03738 0.20837,-4.94075 -1.805,-4.674 -1.86238,-6.96688 0.0655,-1.06475 1.2115,-0.78024 1.04913,-0.0755 -0.52575,2.28437 2.37587,1.04712 2.3815,-0.41775 -0.0606,-1.32375 -0.8185,-2.34101 -2.5515,-2.27375 -3.1795,0 -2.20888,6.61112 -2.20888,9.40612 0,1.51825 -0.55887,1.89213 -2.11287,1.89213 -1.62463,0 -2.17213,-2.3755 -2.17213,-3.72363 0,-6.7515 2.52175,-11.3255 6.87188,-12.46712 4.95812,-1.028 9.48825,3.50675 11.85737,7.38912 1.36525,2.23688 3.41925,5.34475 5.94675,5.30688 4.12113,-0.0358 4.647,-3.59188 4.75575,-7.414 -1.20675,1.63587 -2.413,2.45862 -4.49575,2.45862 -4.56087,0 -9.96837,-9.22 -16.24737,-9.18175 -3.90513,0.16475 -6.10763,1.33375 -8.22688,6.136 -0.24625,0.55838 -0.66825,0.603 -0.60412,-0.42175 0.693,-4.4695 1.75562,-5.6915 2.99437,-6.98525 2.82975,-2.95437 5.74513,-3.0405 9.33525,-3.01812 5.71038,0 6.15075,3.832 10.11963,4.66975 6.17288,0.64725 6.67237,-7.20363 3.31587,-10.42875 -0.11875,2.54412 -3.67375,4.95075 -6.69087,4.9125 -3.195,0.1265 -4.93763,-0.50388 -7.96988,-0.50388 -8.20775,0 -12.903,6.24225 -12.903,15.04875 -0.009,0.42988 -0.6155,0.5255 -0.64737,0.0482 l -0.31638,-8.1525 0.10163,-1.818 c 0,-3.08625 3.88887,-7.5785 5.94037,-9.06812 3.594,-3.01038 8.85013,-0.4365 12.12913,-3.623 7.4005,-7.24288 -2.66563,-13.24138 -9.65975,-14.37975 1.98912,2.5455 2.92637,3.75237 2.92637,7.54937 0,4.99213 -2.216,5.8585 -6.89062,9.9425 -2.04738,1.54875 -3.11738,2.86975 -4.25375,4.80963 -0.0539,-2.73288 -0.0507,-8.9585 1.766,-8.94075 6.07037,0.0584 7.68825,-1.89213 7.61812,-5.376 0.12438,-8.78913 -7.06612,-9.53363 -11.60362,-12.943 z m -2.70638,5.51525 c -1.64349,0.456 -2.50237,3.11175 -2.37087,5.874 0,1.46237 1.2345,3.40275 2.104,4.00825 -0.59388,-1.60013 -1.47962,-5.39538 0.26687,-9.88225 z m 1.79426,37.38712 c 0,-0.862 -0.88688,-0.98425 -0.92013,0.3125 0.12325,3.94338 -1.68175,3.79388 -1.7915,5.31863 0,1.12712 0.21962,1.92637 1.66925,1.77375 1.28188,0 1.06087,-2.42788 1.06087,-3.55188 l -0.0185,-3.853 z m -15.351,-20.30312 c -1.05376,1.71675 -4.40363,3.24287 -6.553,3.24287 -7.83388,0 -7.5285,-8.482 -1.48213,-12.48237 -0.15737,5.77875 2.76938,9.22362 8.03513,9.2395 z m -8.46,11.322 c -0.95213,3.76787 -2.51113,6.12 -5.71638,6.12 -4.27612,-0.41888 -4.05675,-6.59625 -3.14112,-8.97313 2.143,3.865 5.6575,4.11913 8.8575,2.85313 z m 17.70162,13.51337 c 0.78137,-0.0765 1.07825,0.7495 0.78663,1.31813 -0.292,0.56875 -1.10413,0.50212 -1.45488,-0.0539 -0.2675,-0.42337 -0.10275,-1.24012 0.66825,-1.26425 z m -21.11412,4.74563 c -1.7785,0 -3.96363,-2.82438 -4.21163,-4.589 1.09775,0.47937 2.44775,0.99962 3.79663,0.78987 1.535,-0.30512 1.61787,-0.45637 2.42512,-1.55487 1.4335,2.2695 1.09975,5.354 -2.01012,5.354 z m 3.0925,3.84087 c -2.34063,0.71688 -4.06738,-2.16887 -4.50451,-3.02812 1.53488,0.94537 4.50063,0.89862 5.10338,-0.78663 0.59987,1.60725 0.93087,3.09413 -0.59888,3.81475 z m 0.837,2.98813 c -0.99576,-0.17188 -1.60263,-0.6265 -1.79363,-1.36988 1.22237,0.1935 2.50825,-0.16862 2.98312,-1.1945 0.63388,1.1095 0.46976,2.851 -1.18949,2.56438 z m 11.36049,-3.206 c -1.05725,1.024 -2.07462,2.94237 -2.90262,4.16762 -0.53512,0.79125 -1.37125,0.5145 -1.152,0.0553 0.66587,-1.39425 2.57038,-3.76512 4.05462,-4.22287 z m -0.84287,-0.66725 c -1.03013,1.041 -2.27838,2.26462 -2.5435,2.57987 -1.67838,1.997 -2.50788,3.1625 -2.98063,1.99813 -0.0952,-0.23488 0.8295,-1.62075 2.198,-2.6245 1.07538,-0.78913 1.99738,-1.56763 3.32613,-1.9535 z m 7.21337,18.36 c -1.57712,0.83837 -5.586,-0.12288 -6.17812,-2.07313 2.32975,-1.14062 3.47425,-2.0335 5.22287,-3.41225 -0.0645,2.59837 0.20663,3.43875 0.95525,5.48537 z m -12.786,-5.429 c 1.17038,-0.16125 3.88388,0.0131 5.60588,-0.53613 2.80062,-0.89325 4.336,-1.12175 6.9505,-2.22062 -1.008,1.89037 -3.87138,3.59187 -4.80675,4.22825 -2.41725,2.076 -7.26912,1.91487 -7.74963,-1.4715 z m 21.96775,-62.55175 c 1.6435,0.456 2.50238,3.11175 2.37088,5.874 0,1.46237 -1.2345,3.40274 -2.104,4.00825 0.59387,-1.60013 1.47962,-5.39538 -0.26688,-9.88225 z m -1.79425,37.38712 c 0,-0.862 0.88688,-0.98425 0.92013,0.3125 -0.12325,3.94338 1.68138,3.79388 1.7915,5.31863 0,1.12712 -0.21963,1.92637 -1.66925,1.77375 -1.28188,0 -1.06087,-2.42788 -1.06087,-3.55188 l 0.0185,-3.853 z m 15.351,-20.30312 c 1.05375,1.71675 4.40363,3.24287 6.553,3.24287 7.83388,0 7.5285,-8.482 1.48175,-12.48237 0.15775,5.77875 -2.769,9.22362 -8.03475,9.2395 z m 8.46,11.322 c 0.95213,3.76787 2.51113,6.12 5.71638,6.12 4.27612,-0.41888 4.05675,-6.59625 3.14112,-8.97313 -2.14287,3.865 -5.6575,4.11913 -8.8575,2.85313 z m -17.70162,13.51337 c -0.78138,-0.0765 -1.07825,0.7495 -0.78663,1.31813 0.292,0.56875 1.10413,0.50212 1.45488,-0.0539 0.26712,-0.42337 0.10275,-1.24012 -0.66825,-1.26425 z m 21.11412,4.74563 c 1.7785,0 3.96363,-2.82438 4.21163,-4.589 -1.09775,0.47937 -2.44775,0.99962 -3.79663,0.78987 -1.53537,-0.30512 -1.61787,-0.45637 -2.425,-1.55487 -1.43362,2.2695 -1.09987,5.354 2.01,5.354 z m -3.0925,3.84087 c 2.34063,0.71688 4.06738,-2.16887 4.50463,-3.02812 -1.535,0.94537 -4.50075,0.89862 -5.1035,-0.78663 -0.59988,1.60725 -0.93075,3.09413 0.59887,3.81475 z m -0.837,2.98813 c 0.99575,-0.17188 1.60263,-0.6265 1.79325,-1.36988 -1.222,0.1935 -2.50787,-0.16862 -2.98275,-1.1945 -0.63387,1.1095 -0.46975,2.851 1.1895,2.56438 z m -11.3605,-3.206 c 1.05726,1.024 2.07463,2.94237 2.90263,4.16762 0.53512,0.79125 1.37125,0.5145 1.152,0.0553 -0.66612,-1.39425 -2.57038,-3.76512 -4.05463,-4.22287 z m 0.84288,-0.66725 c 1.03012,1.041 2.27838,2.26462 2.5435,2.57987 1.67838,1.997 2.50788,3.1625 2.98063,1.99813 0.0953,-0.23488 -0.8295,-1.62075 -2.198,-2.6245 -1.07538,-0.78913 -1.99738,-1.56763 -3.32613,-1.9535 z m -7.21337,18.36 c 1.57712,0.83837 5.586,-0.12288 6.17812,-2.07313 -2.32975,-1.14062 -3.47425,-2.0335 -5.22287,-3.41225 0.0645,2.59837 -0.20663,3.43875 -0.95525,5.48537 z m 12.786,-5.429 c -1.17038,-0.16125 -3.88388,0.0131 -5.60625,-0.53613 -2.80026,-0.89325 -4.33588,-1.12175 -6.95013,-2.22062 1.008,1.89037 3.87138,3.59187 4.80675,4.22825 2.41725,2.076 7.26913,1.91487 7.74963,-1.4715"
         style="fill:#fddd04;fill-opacity:1;fill-rule:evenodd;stroke:none"
         id="path4882" />
      <path
         d="m 357.66851,931.42791 c 0,1.50125 0.37838,2.26738 0.88613,2.7435 0.72712,0.68538 1.68275,0.71613 2.21037,0.71613 0.64725,0 1.36413,-0.11376 2.071,-0.74688 0.83625,-0.7455 0.94575,-1.96725 0.94575,-3.11637 l 0,-1.10763 c 0,-1.57363 0,-1.86375 0.0201,-2.19512 0.0199,-0.36238 0.0996,-0.53813 0.3685,-0.59025 0.1195,-0.0206 0.179,-0.0309 0.28849,-0.0309 0.11938,0 0.17925,-0.0205 0.17925,-0.0931 0,-0.0724 -0.0697,-0.0932 -0.20899,-0.0932 -0.38838,0 -1.01551,0.0312 -1.135,0.0312 -0.01,0 -0.63738,-0.0312 -1.14513,-0.0312 -0.13925,0 -0.20912,0.0209 -0.20912,0.0932 0,0.0726 0.0595,0.0931 0.16937,0.0931 0.1095,0 0.27887,0.01 0.35863,0.0309 0.3285,0.0726 0.40812,0.2385 0.428,0.59025 0.0199,0.33137 0.0199,0.62149 0.0199,2.19512 l 0,1.29363 c 0,1.06662 -0.0298,1.9985 -0.57763,2.56787 -0.39825,0.41425 -0.93575,0.55913 -1.37375,0.55913 -0.33862,0 -0.79687,-0.0415 -1.24474,-0.4245 -0.48788,-0.41425 -0.77663,-1.04563 -0.77663,-2.54688 l 0,-1.44925 c 0,-1.57362 0,-1.86375 0.0201,-2.19512 0.0199,-0.36238 0.0992,-0.53813 0.36825,-0.59025 0.11975,-0.0206 0.17925,-0.0309 0.28875,-0.0309 0.0995,0 0.15938,-0.0205 0.15938,-0.0931 0,-0.0724 -0.0697,-0.0932 -0.21888,-0.0932 -0.35862,0 -0.98612,0.0312 -1.22462,0.0312 -0.299,0 -0.92625,-0.0312 -1.45375,-0.0312 -0.14963,0 -0.219,0.0209 -0.219,0.0932 0,0.0726 0.0595,0.0931 0.16937,0.0931 0.13925,0 0.30825,0.01 0.388,0.0309 0.32838,0.0726 0.40813,0.2385 0.428,0.59025 0.0199,0.33137 0.0199,0.6215 0.0199,2.19512 l 0,1.51125 z m 9.35925,-2.44313 0.0298,0 c 0.17963,0.19663 1.2845,1.49063 2.36975,2.60888 1.03538,1.06625 2.30987,2.42262 2.93712,3.04375 0.10938,0.1155 0.22925,0.22962 0.33863,0.22962 0.0897,0 0.12937,-0.0933 0.12937,-0.32287 l 0.1095,-6.53275 c 0.01,-0.57963 0.0896,-0.79725 0.3685,-0.88013 0.11938,-0.0309 0.19913,-0.0309 0.29875,-0.0309 0.11938,0 0.17925,-0.0311 0.17925,-0.0931 0,-0.083 -0.0999,-0.0932 -0.22887,-0.0932 -0.488,0 -0.86638,0.0312 -0.97588,0.0312 -0.209,0 -0.687,-0.0312 -1.205,-0.0312 -0.14925,0 -0.25875,0.01 -0.25875,0.0932 0,0.062 0.0397,0.0931 0.15913,0.0931 0.13962,0 0.37837,0 0.528,0.062 0.23875,0.10387 0.32837,0.30013 0.33837,0.93187 l 0.0995,4.6485 -0.0499,0 c -0.16913,-0.1655 -1.51338,-1.6565 -2.19013,-2.36012 -1.45387,-1.50175 -2.96725,-3.189 -3.08662,-3.32362 -0.169,-0.18638 -0.259,-0.32113 -0.3685,-0.32113 -0.0996,0 -0.12938,0.145 -0.12938,0.35225 l -0.0896,6.12887 c -0.01,0.901 -0.0496,1.20113 -0.30863,1.28375 -0.13925,0.0414 -0.3185,0.0521 -0.44787,0.0521 -0.0995,0 -0.15938,0.0205 -0.15938,0.0825 0,0.095 0.0896,0.10525 0.21888,0.10525 0.51775,0 0.98575,-0.0309 1.0755,-0.0309 0.18912,0 0.58737,0.0309 1.23437,0.0309 0.13963,0 0.229,-0.0206 0.229,-0.10525 0,-0.062 -0.0596,-0.0825 -0.16937,-0.0825 -0.15913,0 -0.348,-0.0113 -0.51738,-0.0728 -0.19912,-0.0722 -0.32875,-0.3415 -0.34862,-1.149 l -0.1095,-4.34838 z m 8.98088,2.75388 c 0,1.00413 0,1.822 -0.05,2.257 -0.0298,0.30013 -0.0892,0.47588 -0.28875,0.51738 -0.0896,0.0209 -0.20913,0.0419 -0.35826,0.0419 -0.11975,0 -0.15937,0.0307 -0.15937,0.0825 0,0.0726 0.0697,0.10525 0.19912,0.10525 0.39825,0 1.02538,-0.0309 1.25463,-0.0309 0.269,0 0.89575,0.0309 1.553,0.0309 0.1095,0 0.18925,-0.0326 0.18925,-0.10525 0,-0.0518 -0.0496,-0.0825 -0.15913,-0.0825 -0.1495,0 -0.3685,-0.021 -0.50775,-0.0419 -0.29862,-0.0415 -0.3685,-0.2275 -0.39862,-0.507 -0.0396,-0.44538 -0.0396,-1.26325 -0.0396,-2.26738 l 0,-1.822 c 0,-1.57362 0,-1.86375 0.0201,-2.19512 0.0195,-0.36238 0.0996,-0.53813 0.36825,-0.59025 0.11975,-0.0206 0.19912,-0.0309 0.29862,-0.0309 0.0996,0 0.15913,-0.0205 0.15913,-0.10375 0,-0.0617 -0.0794,-0.0826 -0.20913,-0.0826 -0.37837,0 -0.9655,0.0312 -1.21425,0.0312 -0.28912,0 -0.91625,-0.0312 -1.29437,-0.0312 -0.15938,0 -0.23913,0.0209 -0.23913,0.0826 0,0.0833 0.0595,0.10375 0.15938,0.10375 0.1195,0 0.24875,0.01 0.35825,0.0411 0.21937,0.0521 0.31887,0.22825 0.33875,0.58 0.0199,0.33137 0.0199,0.6215 0.0199,2.19512 l 0,1.822 z m 6.09337,2.51575 c 0.18925,0.48825 0.24875,0.63313 0.37813,0.63313 0.13962,0 0.1995,-0.1655 0.45812,-0.76751 0.21938,-0.51799 0.687,-1.6465 1.32413,-3.15774 0.53787,-1.2735 0.8065,-1.83263 1.19487,-2.806 0.26888,-0.6625 0.418,-0.83863 0.54775,-0.9315 0.17888,-0.12438 0.38838,-0.12438 0.48788,-0.12438 0.0996,0 0.15949,-0.0205 0.15949,-0.0931 0,-0.0724 -0.0801,-0.0932 -0.20949,-0.0932 -0.29863,0 -0.76638,0.0312 -0.93576,0.0312 -0.12962,0 -0.54775,-0.0312 -1.04562,-0.0312 -0.18925,0 -0.2785,0.0209 -0.2785,0.10349 0,0.0726 0.0794,0.0829 0.169,0.0829 0.12937,0 0.27887,0.01 0.39825,0.0518 0.0898,0.0312 0.12975,0.11412 0.12975,0.19663 0,0.0932 -0.04,0.24837 -0.09,0.38337 -0.23888,0.68325 -1.53325,4.01675 -1.96125,5.15588 l -0.0396,0 -1.7125,-4.70051 c -0.13962,-0.37275 -0.22925,-0.66262 -0.22925,-0.79724 0,-0.0933 0.0298,-0.1655 0.0995,-0.21751 0.0798,-0.0621 0.22925,-0.0724 0.38838,-0.0724 0.0896,0 0.1495,-0.0205 0.1495,-0.0931 0,-0.0724 -0.1095,-0.0932 -0.22925,-0.0932 -0.4975,0 -0.97538,0.0312 -1.2245,0.0312 -0.34838,0 -0.916,-0.0312 -1.44538,-0.0312 -0.1495,0 -0.259,0.01 -0.259,0.0932 0,0.062 0.0301,0.0931 0.11975,0.0931 0.0797,0 0.23888,0 0.38838,0.0411 0.36,0.10388 0.52937,0.21763 0.75825,0.78701 l 2.509,6.32587 z m 5.6155,-2.51575 c 0,0.95238 0,1.7705 -0.05,2.20537 -0.0396,0.30013 -0.0896,0.52751 -0.28875,0.56901 -0.0896,0.0209 -0.20913,0.0419 -0.35825,0.0419 -0.11975,0 -0.1595,0.0307 -0.1595,0.0825 0,0.0726 0.0699,0.10525 0.19912,0.10525 0.19925,0 0.45825,-0.0206 0.68713,-0.0206 0.23875,-0.0125 0.45812,-0.0125 0.56762,-0.0125 0.29838,0 0.60738,0.0125 1.03538,0.0326 0.428,0.01 0.9755,0.0311 1.72237,0.0311 0.37838,0 0.46813,0 0.5375,-0.271 0.05,-0.207 0.12975,-0.911 0.12975,-1.14913 0,-0.1035 0,-0.18637 -0.0797,-0.18637 -0.0695,0 -0.0896,0.0415 -0.1095,0.1555 -0.0699,0.42425 -0.18925,0.64175 -0.44787,0.76612 -0.259,0.124 -0.67713,0.124 -0.93613,0.124 -1.0155,0 -1.175,-0.15512 -1.19487,-0.8695 -0.01,-0.30013 0,-1.25262 0,-1.60475 l 0,-0.81813 c 0,-0.0617 0.01,-0.10312 0.0599,-0.10312 0.23888,0 1.22463,0.01 1.41388,0.0308 0.36813,0.0415 0.50775,0.19675 0.55762,0.404 0.0298,0.13425 0.0298,0.26888 0.0397,0.37275 0,0.0514 0.0199,0.0929 0.0892,0.0929 0.09,0 0.09,-0.11376 0.09,-0.19675 0,-0.0722 0.0298,-0.4865 0.0397,-0.69338 0.0396,-0.52837 0.0794,-0.69375 0.0794,-0.75575 0,-0.0624 -0.0295,-0.083 -0.0695,-0.083 -0.0496,0 -0.0896,0.0517 -0.15913,0.13463 -0.09,0.1035 -0.23912,0.13437 -0.478,0.15524 -0.22887,0.0205 -1.374,0.0205 -1.593,0.0205 -0.0599,0 -0.0699,-0.0414 -0.0699,-0.11363 l 0,-2.61925 c 0,-0.0726 0.0199,-0.10387 0.0699,-0.10387 0.19913,0 1.24438,0.021 1.41375,0.0415 0.49788,0.0624 0.59738,0.18675 0.66688,0.37312 0.05,0.124 0.0599,0.30013 0.0599,0.37237 0,0.0935 0.0199,0.14488 0.0896,0.14488 0.0695,0 0.0896,-0.062 0.0996,-0.11375 0.0198,-0.12438 0.0396,-0.57962 0.0499,-0.6835 0.0298,-0.47613 0.0794,-0.6005 0.0794,-0.67287 0,-0.0516 -0.01,-0.0931 -0.0595,-0.0931 -0.05,0 -0.1095,0.0311 -0.1595,0.0415 -0.0796,0.0209 -0.23875,0.0414 -0.428,0.0623 -0.18925,0.01 -2.17062,0.01 -2.48912,0.01 -0.13925,0 -0.36813,-0.01 -0.62725,-0.021 -0.249,0 -0.5375,-0.01 -0.80638,-0.01 -0.1495,0 -0.219,0.0209 -0.219,0.0932 0,0.0726 0.0595,0.0931 0.169,0.0931 0.13963,0 0.309,0.01 0.38838,0.0309 0.3285,0.0726 0.4085,0.2385 0.428,0.59025 0.0203,0.33137 0.0203,0.6215 0.0203,2.19512 l 0,1.82201 z m 6.2925,0 c 0,0.95238 0,1.7705 -0.0499,2.20537 -0.0401,0.30013 -0.0898,0.52751 -0.28888,0.56901 -0.0896,0.0209 -0.209,0.0419 -0.35825,0.0419 -0.11975,0 -0.15938,0.0307 -0.15938,0.0825 0,0.0726 0.0694,0.10525 0.19913,0.10525 0.39825,0 1.02537,-0.0309 1.21462,-0.0309 0.14913,0 0.88625,0.0309 1.46375,0.0309 0.12938,0 0.19875,-0.0326 0.19875,-0.10525 0,-0.0518 -0.0396,-0.0825 -0.11937,-0.0825 -0.11938,0 -0.33838,-0.021 -0.48763,-0.0419 -0.299,-0.0415 -0.3585,-0.26888 -0.38825,-0.56901 -0.05,-0.43487 -0.05,-1.25299 -0.05,-2.21562 l 0,-0.145 c 0,-0.0624 0.0298,-0.0829 0.0797,-0.0829 l 0.866,0.0205 c 0.0697,0 0.12963,0.01 0.17963,0.0726 0.129,0.15525 0.58712,0.85925 0.98537,1.42875 0.55775,0.79725 0.93613,1.28375 1.36413,1.52175 0.25875,0.145 0.50775,0.1985 1.06512,0.1985 l 0.94613,0 c 0.11937,0 0.18925,-0.0206 0.18925,-0.10525 0,-0.0518 -0.0397,-0.0825 -0.11988,-0.0825 -0.0794,0 -0.169,-0.0113 -0.2785,-0.0312 -0.1495,-0.0311 -0.55762,-0.1035 -1.115,-0.704 -0.5875,-0.64175 -1.2745,-1.56338 -2.16075,-2.72313 1.00563,-0.84887 1.31425,-1.55262 1.31425,-2.319 0,-0.69387 -0.39825,-1.22137 -0.67675,-1.41837 -0.53787,-0.38313 -1.20512,-0.44513 -1.83225,-0.44513 -0.30862,0 -1.06512,0.0312 -1.40387,0.0312 -0.20913,0 -0.83625,-0.0312 -1.36425,-0.0312 -0.14913,0 -0.21888,0.0209 -0.21888,0.0933 0,0.0726 0.0599,0.0931 0.16938,0.0931 0.1395,0 0.30862,0.01 0.38825,0.0309 0.3285,0.0726 0.40825,0.2385 0.42812,0.59025 0.0201,0.33138 0.0201,0.6215 0.0201,2.19513 l 0,1.822 z m 1.17463,-4.15175 c 0,-0.0829 0.0199,-0.12437 0.0896,-0.14488 0.0996,-0.0309 0.27888,-0.0411 0.52763,-0.0411 0.5875,0 1.52362,0.42413 1.52362,1.89462 0,0.84863 -0.28912,1.32488 -0.5875,1.55263 -0.17925,0.13462 -0.30862,0.17612 -0.70687,0.17612 -0.24913,0 -0.54775,-0.0311 -0.75688,-0.10375 -0.0697,-0.0309 -0.0896,-0.0724 -0.0896,-0.18637 l 0,-3.14725 z m 7.09899,7.30063 c 0.528,0 1.08538,-0.0931 1.58313,-0.42588 0.71688,-0.4865 0.93587,-1.20112 0.93587,-1.80175 0,-0.98362 -0.42812,-1.69762 -1.63274,-2.63975 l -0.27888,-0.21762 c -0.82637,-0.65225 -1.05525,-1.01438 -1.05525,-1.49063 0,-0.62112 0.44787,-1.0665 1.18488,-1.0665 0.647,0 0.93587,0.31075 1.08499,0.50738 0.20938,0.26925 0.25901,0.59025 0.25901,0.68312 0,0.124 0.0297,0.18638 0.0996,0.18638 0.0794,0 0.10937,-0.0829 0.10937,-0.31038 0,-0.80787 0.0397,-1.108 0.0397,-1.24262 0,-0.0726 -0.0496,-0.1035 -0.13925,-0.124 -0.259,-0.0726 -0.67712,-0.17613 -1.3245,-0.17613 -1.38362,0 -2.29962,0.81775 -2.29962,1.95663 0,0.83862 0.37812,1.56325 1.47362,2.45375 l 0.45788,0.37275 c 0.82662,0.67287 0.97575,1.149 0.97575,1.6565 0,0.54887 -0.43825,1.18025 -1.334,1.18025 -0.61763,0 -1.20512,-0.27963 -1.424,-1.04563 -0.05,-0.17612 -0.0898,-0.39362 -0.0898,-0.528 0,-0.0829 -0.01,-0.17612 -0.0995,-0.17612 -0.0798,0 -0.1095,0.11375 -0.11938,0.269 -0.01,0.16587 -0.0496,0.787 -0.0496,1.35675 0,0.2275 0.0298,0.27912 0.18912,0.35187 0.42813,0.19838 0.876,0.27063 1.4535,0.27063 z m 4.88876,-3.14888 c 0,1.00413 0,1.822 -0.05,2.257 -0.0298,0.30013 -0.0892,0.47587 -0.28837,0.51738 -0.09,0.0209 -0.2095,0.0419 -0.35863,0.0419 -0.11937,0 -0.1595,0.0307 -0.1595,0.0825 0,0.0726 0.0699,0.10525 0.19925,0.10525 0.39825,0 1.02538,-0.0309 1.25463,-0.0309 0.26887,0 0.89612,0.0309 1.553,0.0309 0.1095,0 0.18962,-0.0326 0.18962,-0.10525 0,-0.0518 -0.05,-0.0825 -0.1595,-0.0825 -0.1495,0 -0.3685,-0.021 -0.50775,-0.0419 -0.29862,-0.0415 -0.3685,-0.2275 -0.39825,-0.507 -0.04,-0.44538 -0.04,-1.26325 -0.04,-2.26738 l 0,-1.822 c 0,-1.57363 0,-1.86375 0.0201,-2.19512 0.0199,-0.36238 0.0996,-0.53813 0.36813,-0.59025 0.11987,-0.0206 0.19925,-0.0309 0.29874,-0.0309 0.0996,0 0.1595,-0.0205 0.1595,-0.10375 0,-0.0617 -0.0797,-0.0826 -0.2095,-0.0826 -0.378,0 -0.9655,0.0312 -1.21425,0.0312 -0.28912,0 -0.91625,-0.0312 -1.29437,-0.0312 -0.1595,0 -0.23875,0.0209 -0.23875,0.0826 0,0.0833 0.0595,0.10375 0.159,0.10375 0.1195,0 0.24875,0.01 0.35825,0.0411 0.21938,0.0521 0.31888,0.22825 0.33875,0.58 0.0199,0.33137 0.0199,0.6215 0.0199,2.19512 l 0,1.822 z m 5.82487,0 c 0,0.95238 0,1.7705 -0.05,2.20537 -0.0301,0.30013 -0.0896,0.5275 -0.28875,0.569 -0.0898,0.0209 -0.20913,0.0419 -0.35825,0.0419 -0.11975,0 -0.1595,0.0307 -0.1595,0.0825 0,0.0726 0.0695,0.10525 0.19912,0.10525 0.39825,0 1.0255,-0.0309 1.25438,-0.0309 0.27887,0 0.90637,0.0309 1.563,0.0309 0.10975,0 0.1895,-0.0326 0.1895,-0.10525 0,-0.0518 -0.05,-0.0825 -0.1595,-0.0825 -0.14913,0 -0.36813,-0.021 -0.50775,-0.0419 -0.29863,-0.0415 -0.35813,-0.26887 -0.38825,-0.55875 -0.0496,-0.44512 -0.0496,-1.26325 -0.0496,-2.21562 l 0,-4.24488 1.25425,0.0311 c 0.88625,0.0209 1.15513,0.31075 1.175,0.57975 l 0.01,0.114 c 0.01,0.15525 0.0299,0.207 0.1095,0.207 0.0599,0 0.0797,-0.062 0.0898,-0.16588 0,-0.26887 0.0301,-0.98325 0.0301,-1.20075 0,-0.15525 -0.01,-0.21762 -0.0801,-0.21762 -0.0397,0 -0.11937,0.0209 -0.26862,0.0521 -0.1495,0.0205 -0.3685,0.0517 -0.687,0.0517 l -3.94263,0 c -0.3285,0 -0.70687,-0.021 -0.99575,-0.0517 -0.24875,-0.0209 -0.34862,-0.12437 -0.42837,-0.12437 -0.0595,0 -0.0892,0.062 -0.11938,0.19662 -0.0199,0.0829 -0.209,1.02513 -0.209,1.1905 0,0.11413 0.0201,0.16588 0.0896,0.16588 0.0595,0 0.0896,-0.0415 0.1095,-0.124 0.0197,-0.0833 0.0697,-0.20725 0.16937,-0.3625 0.14913,-0.22813 0.38825,-0.2795 0.9655,-0.3005 l 1.484,-0.0414 0,4.24488 z m 7.76575,0.30013 c 0.0496,0 0.0794,0.0209 0.0996,0.0726 l 0.79612,2.19475 c 0.05,0.12438 -0.0194,0.2175 -0.0892,0.238 -0.0995,0.0113 -0.13962,0.0312 -0.13962,0.0933 0,0.0726 0.1195,0.0726 0.29875,0.0846 0.7965,0.0206 1.52362,0.0206 1.88187,0.0206 0.3685,0 0.45775,-0.0206 0.45775,-0.10525 0,-0.0722 -0.0496,-0.0825 -0.129,-0.0825 -0.11975,0 -0.26887,-0.0113 -0.4185,-0.0419 -0.209,-0.0616 -0.49775,-0.20513 -0.87587,-1.13351 -0.63738,-1.56862 -2.2305,-5.79262 -2.46925,-6.36199 -0.0996,-0.23813 -0.1595,-0.33125 -0.24913,-0.33125 -0.0996,0 -0.15912,0.114 -0.2785,0.41412 l -2.4995,6.50163 c -0.19875,0.518 -0.388,0.8695 -0.8475,0.93187 -0.0797,0.01 -0.219,0.021 -0.309,0.021 -0.0794,0 -0.11937,0.0205 -0.11937,0.0825 0,0.0846 0.0599,0.10525 0.18912,0.10525 0.5195,0 1.06725,-0.0309 1.17675,-0.0309 0.30863,0 0.73663,0.0309 1.05525,0.0309 0.1095,0 0.16938,-0.0206 0.16938,-0.10525 0,-0.062 -0.0301,-0.0825 -0.14925,-0.0825 l -0.14988,0 c -0.30862,0 -0.39787,-0.13475 -0.39787,-0.32112 0,-0.12438 0.0496,-0.37313 0.14912,-0.63175 l 0.53788,-1.48038 c 0.0199,-0.062 0.0397,-0.0829 0.0894,-0.0829 l 2.2205,0 z m -2.021,-0.51776 c -0.0401,0 -0.05,-0.0307 -0.0401,-0.0722 l 0.916,-2.54688 c 0.01,-0.0415 0.0301,-0.0933 0.0599,-0.0933 0.0297,0 0.0396,0.0518 0.0496,0.0933 l 0.89613,2.55713 c 0.01,0.0312 0,0.062 -0.0496,0.062 l -1.83188,0 z m 7.17875,3.36651 c 0.5275,0 1.08488,-0.0931 1.58275,-0.42588 0.71712,-0.4865 0.93612,-1.20112 0.93612,-1.80175 0,-0.98362 -0.42799,-1.69762 -1.63312,-2.63975 l -0.27888,-0.21762 c -0.82625,-0.65225 -1.05512,-1.01438 -1.05512,-1.49063 0,-0.62112 0.44825,-1.0665 1.18487,-1.0665 0.647,0 0.93575,0.31075 1.08525,0.50738 0.20913,0.26925 0.25875,0.59025 0.25875,0.68312 0,0.124 0.0298,0.18638 0.0995,0.18638 0.0798,0 0.1095,-0.0829 0.1095,-0.31038 0,-0.80787 0.0397,-1.108 0.0397,-1.24262 0,-0.0726 -0.0496,-0.1035 -0.13937,-0.124 -0.25863,-0.0726 -0.67675,-0.17613 -1.32413,-0.17613 -1.38399,0 -2.29987,0.81775 -2.29987,1.95663 0,0.83862 0.37837,1.56325 1.47362,2.45375 l 0.45775,0.37275 c 0.82676,0.67287 0.97588,1.149 0.97588,1.6565 0,0.54887 -0.438,1.18025 -1.334,1.18025 -0.61725,0 -1.20475,-0.27963 -1.42375,-1.04563 -0.05,-0.17612 -0.09,-0.39362 -0.09,-0.528 0,-0.0829 -0.01,-0.17612 -0.0996,-0.17612 -0.0794,0 -0.10937,0.11375 -0.11937,0.269 -0.01,0.16587 -0.0496,0.787 -0.0496,1.35675 0,0.2275 0.0301,0.27912 0.18925,0.35187 0.428,0.19838 0.87626,0.27063 1.45388,0.27063 z m -64.14988,8.40687 c 0,1.0045 0,1.82238 -0.05,2.25713 -0.0301,0.30012 -0.0896,0.47625 -0.28875,0.51762 -0.0896,0.0209 -0.209,0.0415 -0.35825,0.0415 -0.11975,0 -0.15937,0.0307 -0.15937,0.0829 0,0.0722 0.0694,0.10525 0.19912,0.10525 0.39825,0 1.02538,-0.0311 1.25425,-0.0311 0.269,0 0.89613,0.0311 1.5535,0.0311 0.10938,0 0.18913,-0.033 0.18913,-0.10525 0,-0.0521 -0.0499,-0.0829 -0.15938,-0.0829 -0.14925,0 -0.36825,-0.0206 -0.50775,-0.0415 -0.29875,-0.0414 -0.3685,-0.22787 -0.39825,-0.50738 -0.0397,-0.44499 -0.0397,-1.26287 -0.0397,-2.26737 l 0,-1.822 c 0,-1.5735 0,-1.86337 0.0199,-2.195 0.0199,-0.36213 0.0995,-0.53788 0.36812,-0.59 0.11975,-0.0205 0.1995,-0.0311 0.299,-0.0311 0.0996,0 0.15913,-0.0206 0.15913,-0.1035 0,-0.062 -0.0797,-0.0829 -0.209,-0.0829 -0.3785,0 -0.96563,0.0311 -1.21463,0.0311 -0.28887,0 -0.916,-0.0311 -1.29437,-0.0311 -0.1595,0 -0.23888,0.0209 -0.23888,0.0829 0,0.0829 0.0595,0.1035 0.15913,0.1035 0.11975,0 0.24875,0.01 0.35825,0.0414 0.21925,0.0521 0.31887,0.22787 0.33875,0.57975 0.0201,0.33162 0.0201,0.6215 0.0201,2.195 l 0,1.822 z m 4.94825,-2.75388 0.0297,0 c 0.17925,0.197 1.2845,1.49101 2.36975,2.60901 1.03538,1.06649 2.30988,2.42287 2.93713,3.044 0.10937,0.1155 0.22925,0.22925 0.33862,0.22925 0.0898,0 0.12938,-0.0929 0.12938,-0.32238 l 0.1095,-6.53325 c 0.01,-0.57962 0.0896,-0.79687 0.36812,-0.87975 0.11975,-0.0311 0.1995,-0.0311 0.29913,-0.0311 0.11937,0 0.17887,-0.0312 0.17887,-0.0929 0,-0.0833 -0.0995,-0.0935 -0.22887,-0.0935 -0.48763,0 -0.866,0.0311 -0.9755,0.0311 -0.209,0 -0.687,-0.0311 -1.205,-0.0311 -0.14925,0 -0.25875,0.01 -0.25875,0.0935 0,0.0616 0.0397,0.0929 0.15912,0.0929 0.13963,0 0.37838,0 0.52763,0.0623 0.23912,0.1035 0.32875,0.30012 0.33875,0.93199 l 0.0995,4.64838 -0.0499,0 c -0.16913,-0.16575 -1.51338,-1.6565 -2.19013,-2.3605 -1.45387,-1.50137 -2.96725,-3.18862 -3.087,-3.32362 -0.169,-0.186 -0.25862,-0.32063 -0.36813,-0.32063 -0.0996,0 -0.12937,0.14488 -0.12937,0.35175 l -0.0896,6.12925 c -0.01,0.90075 -0.0499,1.20088 -0.30862,1.28375 -0.13925,0.0415 -0.3185,0.0518 -0.44825,0.0518 -0.0995,0 -0.159,0.0205 -0.159,0.0829 0,0.095 0.0896,0.10525 0.21887,0.10525 0.51775,0 0.98575,-0.0311 1.07513,-0.0311 0.1895,0 0.5875,0.0311 1.23487,0.0311 0.1395,0 0.22888,-0.0209 0.22888,-0.10525 0,-0.0624 -0.0596,-0.0829 -0.16938,-0.0829 -0.15912,0 -0.34799,-0.01 -0.51737,-0.0722 -0.19913,-0.0728 -0.32875,-0.342 -0.34863,-1.1495 l -0.1095,-4.34837 z m 8.98088,2.75388 c 0,0.9525 0,1.77063 -0.05,2.20537 -0.0396,0.30013 -0.0896,0.52801 -0.28875,0.56938 -0.0896,0.0209 -0.209,0.0415 -0.35825,0.0415 -0.11975,0 -0.15938,0.0307 -0.15938,0.0829 0,0.0722 0.0697,0.10525 0.19913,0.10525 0.19912,0 0.45812,-0.0209 0.687,-0.0209 0.23887,-0.0125 0.45812,-0.0125 0.56762,-0.0125 0.24875,0 0.59738,0.033 0.97588,0.0641 0.378,0.0309 0.78625,0.0618 1.14475,0.0618 1.84187,0 2.87762,-0.73675 3.33537,-1.22313 0.55775,-0.59037 1.08525,-1.58387 1.08525,-2.88862 0,-1.232 -0.468,-2.0915 -0.96587,-2.62938 -1.08525,-1.18062 -2.74775,-1.18062 -3.99263,-1.18062 -0.59737,0 -1.2245,0.0311 -1.53312,0.0311 -0.27888,0 -0.906,-0.0311 -1.43363,-0.0311 -0.1495,0 -0.219,0.0209 -0.219,0.0935 0,0.0722 0.0595,0.0929 0.169,0.0929 0.13963,0 0.309,0.01 0.38838,0.0311 0.3285,0.0726 0.4085,0.23812 0.428,0.59 0.0203,0.33162 0.0203,0.6215 0.0203,2.195 l 0,1.822 z m 1.24437,-1.98775 c 0,-0.81787 0,-1.7185 0.01,-2.07037 0,-0.11413 0.03,-0.16588 0.11938,-0.207 0.0798,-0.0418 0.44825,-0.0726 0.64737,-0.0726 0.77663,0 1.91163,0.124 2.8275,1.03538 0.42838,0.4245 0.956,1.27312 0.956,2.588 0,1.06662 -0.1995,2.00875 -0.83662,2.57812 -0.59738,0.53825 -1.2745,0.7455 -2.29,0.7455 -0.78625,0 -1.17463,-0.2175 -1.30425,-0.41412 -0.0794,-0.11413 -0.0996,-0.528 -0.1095,-0.787 -0.01,-0.19663 -0.0199,-0.99388 -0.0199,-2.09125 l 0,-1.30463 z m 11.002,5.137 c 2.52888,0 4.12225,-1.87575 4.12225,-4.24662 0,-2.37051 -1.5435,-3.87213 -4.02275,-3.87213 -2.987,0 -4.112,2.28825 -4.112,4.0585 0,1.83263 1.15513,4.06025 4.0125,4.06025 z m 0.4185,-0.51937 c -1.912,0 -3.05687,-1.70826 -3.05687,-3.86188 0,-2.57775 1.30425,-3.24037 2.44912,-3.24037 1.63313,0 2.91763,1.439 2.91763,3.758 0,2.99237 -1.61325,3.34425 -2.30988,3.34425 z m 6.23263,-5.38376 0.0294,0 c 0.17963,0.197 1.2845,1.49101 2.36975,2.60901 1.03575,1.06649 2.30988,2.42287 2.93713,3.044 0.1095,0.1155 0.22925,0.22925 0.33875,0.22925 0.0896,0 0.12925,-0.0929 0.12925,-0.32238 l 0.1095,-6.53325 c 0.01,-0.57962 0.0896,-0.79687 0.3685,-0.87975 0.1195,-0.0311 0.19913,-0.0311 0.29875,-0.0311 0.11938,0 0.17925,-0.0312 0.17925,-0.0929 0,-0.0833 -0.0995,-0.0935 -0.22888,-0.0935 -0.48787,0 -0.86637,0.0311 -0.97587,0.0311 -0.209,0 -0.687,-0.0311 -1.20463,-0.0311 -0.14962,0 -0.259,0.01 -0.259,0.0935 0,0.0616 0.04,0.0929 0.15938,0.0929 0.13925,0 0.37812,0 0.52762,0.0623 0.23875,0.1035 0.3285,0.30012 0.33838,0.93199 l 0.0996,4.64838 -0.0496,0 c -0.16938,-0.16575 -1.51338,-1.6565 -2.1905,-2.3605 -1.45388,-1.50137 -2.96713,-3.18862 -3.08663,-3.32362 -0.169,-0.186 -0.25862,-0.32063 -0.36812,-0.32063 -0.0999,0 -0.12963,0.14488 -0.12963,0.35175 l -0.0894,6.12925 c -0.01,0.90075 -0.0499,1.20088 -0.309,1.28375 -0.13925,0.0415 -0.3185,0.0518 -0.44788,0.0518 -0.0995,0 -0.15937,0.0205 -0.15937,0.0829 0,0.095 0.0896,0.10525 0.21937,0.10525 0.51725,0 0.98538,-0.0311 1.075,-0.0311 0.18925,0 0.5875,0.0311 1.23488,0.0311 0.13925,0 0.2285,-0.0209 0.2285,-0.10525 0,-0.0624 -0.0595,-0.0829 -0.169,-0.0829 -0.1595,0 -0.34838,-0.01 -0.51775,-0.0722 -0.19913,-0.0728 -0.32875,-0.342 -0.34825,-1.1495 l -0.1095,-4.34837 z m 8.9805,2.75388 c 0,0.9525 0,1.77063 -0.05,2.20537 -0.0396,0.30013 -0.0892,0.52801 -0.28838,0.56938 -0.09,0.0209 -0.209,0.0415 -0.35862,0.0415 -0.11938,0 -0.15938,0.0307 -0.15938,0.0829 0,0.0722 0.0697,0.10525 0.1995,0.10525 0.19913,0 0.45775,-0.0209 0.687,-0.0209 0.2385,-0.0125 0.45775,-0.0125 0.56725,-0.0125 0.29875,0 0.60738,0.0125 1.03538,0.033 0.42837,0.01 0.97587,0.0311 1.72275,0.0311 0.3785,0 0.46775,0 0.5375,-0.271 0.05,-0.20725 0.12937,-0.911 0.12937,-1.1495 0,-0.10313 0,-0.18638 -0.0794,-0.18638 -0.0697,0 -0.09,0.0415 -0.10988,0.15563 -0.0697,0.4245 -0.18912,0.64162 -0.44787,0.766 -0.259,0.12437 -0.67713,0.12437 -0.93575,0.12437 -1.0155,0 -1.175,-0.15512 -1.19475,-0.86987 -0.01,-0.30013 0,-1.2525 0,-1.60475 l 0,-0.81775 c 0,-0.062 0.01,-0.1035 0.0595,-0.1035 0.23875,0 1.2245,0.01 1.41375,0.0309 0.3685,0.0417 0.50775,0.197 0.55775,0.40425 0.0298,0.13425 0.0298,0.26888 0.0396,0.37238 0,0.0518 0.0203,0.0933 0.0896,0.0933 0.0898,0 0.0898,-0.11413 0.0898,-0.19675 0,-0.0726 0.0297,-0.4865 0.0396,-0.69375 0.04,-0.52788 0.0798,-0.69338 0.0798,-0.75575 0,-0.062 -0.0298,-0.0826 -0.0699,-0.0826 -0.0495,0 -0.0892,0.0514 -0.159,0.13475 -0.0896,0.103 -0.23925,0.13425 -0.478,0.15513 -0.22888,0.0206 -1.37413,0.0206 -1.59275,0.0206 -0.0599,0 -0.0697,-0.0415 -0.0697,-0.11412 l 0,-2.61925 c 0,-0.0722 0.0197,-0.1035 0.0697,-0.1035 0.19875,0 1.244,0.021 1.41337,0.0415 0.49788,0.062 0.5975,0.18637 0.66725,0.37275 0.05,0.124 0.0599,0.30012 0.0599,0.37275 0,0.0933 0.0195,0.145 0.0892,0.145 0.0699,0 0.0897,-0.0624 0.0996,-0.11375 0.0203,-0.12475 0.04,-0.58013 0.05,-0.6835 0.0301,-0.47625 0.0796,-0.60063 0.0796,-0.67325 0,-0.0514 -0.01,-0.0929 -0.0599,-0.0929 -0.0495,0 -0.10937,0.0312 -0.159,0.0415 -0.0801,0.0205 -0.23925,0.0411 -0.42812,0.062 -0.1895,0.01 -2.17088,0.01 -2.4895,0.01 -0.13925,0 -0.36813,-0.01 -0.62713,-0.0209 -0.24875,0 -0.5375,-0.01 -0.8065,-0.01 -0.14912,0 -0.219,0.0209 -0.219,0.0935 0,0.0722 0.0599,0.0929 0.16938,0.0929 0.13925,0 0.30862,0.01 0.38837,0.0311 0.3285,0.0726 0.40825,0.23812 0.428,0.59 0.0199,0.33162 0.0199,0.6215 0.0199,2.195 l 0,1.822 z"
         style="fill:#231f20;fill-opacity:1;fill-rule:nonzero;stroke:none"
         id="path4884" />
      <path
         d="m 410.77663,946.44366 c 0.52763,0 1.08525,-0.0931 1.58313,-0.42625 0.71675,-0.4865 0.93575,-1.20075 0.93575,-1.80138 0,-0.98362 -0.428,-1.69799 -1.63275,-2.64012 l -0.27887,-0.21725 c -0.82663,-0.65225 -1.0555,-1.01475 -1.0555,-1.491 0,-0.62112 0.44825,-1.0665 1.18487,-1.0665 0.647,0 0.93613,0.31075 1.08537,0.50738 0.209,0.26925 0.25863,0.59037 0.25863,0.68349 0,0.12401 0.0301,0.186 0.0999,0.186 0.0794,0 0.1095,-0.0825 0.1095,-0.31037 0,-0.8075 0.0397,-1.10763 0.0397,-1.24263 0,-0.0722 -0.0496,-0.10312 -0.13963,-0.12399 -0.25875,-0.0722 -0.67675,-0.17613 -1.32412,-0.17613 -1.38375,0 -2.29963,0.81813 -2.29963,1.957 0,0.83837 0.378,1.56325 1.47325,2.45375 l 0.45813,0.37275 c 0.82637,0.6725 0.97587,1.14875 0.97587,1.65613 0,0.54887 -0.43825,1.18025 -1.33437,1.18025 -0.61725,0 -1.20475,-0.27951 -1.42375,-1.04563 -0.0499,-0.17613 -0.0896,-0.39325 -0.0896,-0.52762 0,-0.0833 -0.01,-0.17601 -0.0996,-0.17601 -0.0796,0 -0.10938,0.11363 -0.11938,0.26888 -0.01,0.16587 -0.0496,0.787 -0.0496,1.35638 0,0.22787 0.0297,0.27962 0.18887,0.35187 0.428,0.19838 0.87625,0.271 1.45387,0.271 z m 4.88863,-3.14925 c 0,1.0045 0,1.82238 -0.0499,2.25713 -0.0298,0.30012 -0.0894,0.47625 -0.28888,0.51762 -0.0896,0.0209 -0.209,0.0415 -0.35812,0.0415 -0.11975,0 -0.1595,0.0307 -0.1595,0.0829 0,0.0722 0.0697,0.10525 0.19912,0.10525 0.39825,0 1.0255,-0.0311 1.25475,-0.0311 0.26888,0 0.89575,0.0311 1.553,0.0311 0.1095,0 0.18925,-0.033 0.18925,-0.10525 0,-0.0521 -0.05,-0.0829 -0.1595,-0.0829 -0.14912,0 -0.36812,-0.0206 -0.50737,-0.0415 -0.29913,-0.0414 -0.3685,-0.22787 -0.39863,-0.50738 -0.0397,-0.44499 -0.0397,-1.26287 -0.0397,-2.26737 l 0,-1.822 c 0,-1.5735 0,-1.86337 0.0203,-2.195 0.0195,-0.36213 0.0995,-0.53788 0.36813,-0.59 0.11937,-0.0205 0.19912,-0.0311 0.29875,-0.0311 0.0995,0 0.159,-0.0206 0.159,-0.1035 0,-0.062 -0.0794,-0.0829 -0.209,-0.0829 -0.37838,0 -0.9655,0.0311 -1.21425,0.0311 -0.28913,0 -0.91638,-0.0311 -1.29438,-0.0311 -0.1595,0 -0.23925,0.0209 -0.23925,0.0829 0,0.0829 0.0596,0.1035 0.15913,0.1035 0.11975,0 0.24912,0.01 0.35862,0.0414 0.21925,0.0521 0.31888,0.22787 0.33838,0.57975 0.0201,0.33162 0.0201,0.6215 0.0201,2.195 l 0,1.822 z m 7.11888,0.3005 c 0.0496,0 0.0797,0.0205 0.0996,0.0722 l 0.7965,2.19512 c 0.05,0.12401 -0.0199,0.21751 -0.0896,0.23813 -0.0996,0.01 -0.13925,0.0308 -0.13925,0.0931 0,0.0722 0.11937,0.0722 0.29837,0.0844 0.7965,0.0209 1.52363,0.0209 1.88175,0.0209 0.36863,0 0.45825,-0.0209 0.45825,-0.10525 0,-0.0726 -0.0496,-0.0829 -0.12937,-0.0829 -0.11975,0 -0.26888,-0.01 -0.41813,-0.0415 -0.209,-0.062 -0.49812,-0.20513 -0.87625,-1.1335 -0.63738,-1.56863 -2.23012,-5.79263 -2.46937,-6.362 -0.0995,-0.2385 -0.15938,-0.33125 -0.24875,-0.33125 -0.0995,0 -0.15938,0.11375 -0.27876,0.41387 l -2.49912,6.50188 c -0.19913,0.51775 -0.38838,0.86962 -0.84788,0.93187 -0.0797,0.01 -0.219,0.0206 -0.30862,0.0206 -0.0797,0 -0.1195,0.0205 -0.1195,0.0829 0,0.0844 0.0596,0.10525 0.18888,0.10525 0.5195,0 1.06724,-0.0311 1.17674,-0.0311 0.30863,0 0.73663,0.0311 1.05525,0.0311 0.10951,0 0.16938,-0.0209 0.16938,-0.10525 0,-0.0624 -0.0299,-0.0829 -0.14925,-0.0829 l -0.1495,0 c -0.30862,0 -0.39825,-0.13463 -0.39825,-0.321 0,-0.12438 0.0496,-0.37275 0.14913,-0.6315 l 0.53787,-1.48038 c 0.0199,-0.0624 0.0397,-0.0829 0.0896,-0.0829 l 2.22025,0 z m -2.02113,-0.51775 c -0.0396,0 -0.0499,-0.0311 -0.0396,-0.0726 l 0.916,-2.5465 c 0.01,-0.0415 0.0298,-0.0936 0.0595,-0.0936 0.0297,0 0.04,0.0521 0.0499,0.0936 l 0.89613,2.55687 c 0.01,0.0311 0,0.0623 -0.0499,0.0623 l -1.832,0 z"
         style="fill:#231f20;fill-opacity:1;fill-rule:nonzero;stroke:none"
         id="path4886" />
      <path
         d="m 353.36826,963.49166 c 0.0475,0.0736 0.0724,0.13713 0.0724,0.19063 0,0.0772 -0.162,0.23025 -0.48651,0.45425 -0.45824,0.5655 -1.07824,1.52212 -1.86062,2.8715 -0.83975,1.45062 -1.422,2.59975 -1.74438,3.44725 0.017,0.085 0.0266,0.15275 0.0266,0.19837 0,0.129 -0.11625,0.24813 -0.35125,0.36113 -0.0935,0.0454 -0.17538,0.0694 -0.24625,0.0694 -0.0935,0 -0.21713,-0.0892 -0.36988,-0.26787 -0.0595,-0.0733 -0.09,-0.14875 -0.09,-0.22638 0,-0.113 0.0535,-0.21825 0.15663,-0.31325 -0.0209,-1.29612 -0.18713,-2.58375 -0.49613,-3.86787 -0.27662,-1.13525 -0.5765,-1.9445 -0.90062,-2.42888 -0.11275,-0.17075 -0.2615,-0.25587 -0.44688,-0.25587 -0.20225,0 -0.49037,0.14462 -0.86625,0.43662 -0.0422,0.0298 -0.0898,0.0456 -0.14712,0.0456 -0.10663,0 -0.16225,-0.04 -0.16225,-0.12113 0,-0.0479 0.0308,-0.10137 0.09,-0.16262 0.31637,-0.3335 0.71362,-0.641 1.1905,-0.91888 0.16837,-0.10125 0.3055,-0.153 0.40862,-0.153 0.16788,0 0.33763,0.13113 0.5095,0.39075 0.76351,1.16725 1.294,3.24288 1.58776,6.22525 0.2615,-0.54562 0.754,-1.48812 1.48112,-2.82362 0.66788,-1.23238 1.04775,-1.91688 1.14125,-2.054 -0.0709,0.0125 -0.14525,-0.0614 -0.22325,-0.22013 -0.0782,-0.15875 -0.11837,-0.31562 -0.11837,-0.4705 0,-0.12475 0.0362,-0.18637 0.10675,-0.18637 0.0861,0.004 0.17187,0.006 0.25762,0.006 0.0991,-0.028 0.231,-0.11513 0.39113,-0.26225 0.107,-0.097 0.214,-0.19625 0.31887,-0.2955 0.10663,-0.0772 0.18888,-0.11725 0.24588,-0.11725 0.14925,0 0.32287,0.14912 0.52512,0.44862 z m 1.73837,5.761 c -0.90425,1.20438 -1.54162,1.8075 -1.912,1.8075 -0.17362,0 -0.39712,-0.12475 -0.66437,-0.37662 -0.28025,-0.13725 -0.41988,-0.3175 -0.41988,-0.54788 0,-0.0417 0.004,-0.0875 0.0113,-0.13287 0.0666,-0.53188 0.20225,-1.11925 0.40812,-1.76238 -0.13712,-0.0734 -0.208,-0.14287 -0.208,-0.20837 0,-0.0553 0.0405,-0.0811 0.11837,-0.0811 0.0592,0 0.12051,0.0176 0.18538,0.0514 0.32987,-0.77388 0.62962,-1.32563 0.89287,-1.65088 0.17188,-0.2165 0.32638,-0.32562 0.466,-0.32562 0.0626,0 0.21926,0.0556 0.46913,0.16862 -0.0189,-0.11687 0.0112,-0.1845 0.0939,-0.20437 0.004,0 0.0914,0 0.26325,0 0.16013,0 0.24025,0.0301 0.24025,0.0875 0,0.0125 -0.006,0.0457 -0.017,0.0992 -0.0113,0.0553 -0.0153,0.10525 -0.0153,0.1505 0,0.14112 0.001,0.31362 0.004,0.51812 0.004,0.2065 0.006,0.34325 0.006,0.41275 0,0.4805 -0.12612,0.81562 -0.37975,1.006 -0.231,0.17463 -0.4925,0.26213 -0.78237,0.26213 -0.15275,0 -0.40675,-0.0439 -0.75975,-0.129 -0.0648,0.12125 -0.13563,0.35512 -0.21363,0.7045 -0.10312,0.4425 -0.15275,0.83337 -0.14487,1.17487 0.004,0.20025 0.0645,0.30163 0.18487,0.30163 0.044,0 0.10138,-0.0125 0.17363,-0.0359 0.43125,-0.15875 1.03437,-0.64312 1.80537,-1.45275 0.0479,-0.0496 0.0974,-0.0751 0.14488,-0.0751 0.0709,0 0.107,0.0337 0.107,0.10487 0,0.0419 -0.0191,0.0876 -0.0574,0.13325 z m -0.65262,-2.56987 c 0,-0.151 -0.0323,-0.2265 -0.0954,-0.2265 -0.0417,0 -0.101,0.0301 -0.17925,0.0936 -0.36462,0.30538 -0.68525,0.84325 -0.962,1.60925 0.0744,0.0113 0.20625,0.0238 0.39113,0.0355 0.30187,0.0125 0.52875,-0.0591 0.6775,-0.21612 0.11087,-0.11513 0.174,-0.30763 0.18325,-0.5755 -0.009,0.1985 -0.0152,-0.0417 -0.0152,-0.72025 z m 4.63,-0.14501 c 0,0.50813 -0.067,0.99213 -0.19663,1.45276 -0.0401,0.14074 -0.0975,0.21049 -0.168,0.21049 -0.0514,0 -0.16787,-0.0776 -0.34512,-0.2325 -0.0896,-0.0772 -0.11263,-0.18849 -0.0691,-0.33124 0.10525,-0.35325 0.15663,-0.63713 0.15663,-0.84938 0,-0.0732 -0.0134,-0.11125 -0.0439,-0.11125 -0.0436,0 -0.118,0.0695 -0.21762,0.2105 -0.77663,1.04988 -1.35488,2.22838 -1.73863,3.53413 -0.12375,0.41487 -0.22887,0.62112 -0.31287,0.62112 -0.034,0 -0.18113,-0.0674 -0.44263,-0.20237 -0.12612,-0.0655 -0.17,-0.1945 -0.12787,-0.38475 0.29412,-1.33975 0.61087,-2.47288 0.95037,-3.39338 -0.27675,0.3015 -0.45212,0.50775 -0.52662,0.62113 -0.0286,0.0454 -0.0709,0.0694 -0.12225,0.0694 -0.063,0 -0.0953,-0.028 -0.0953,-0.0875 0,-0.0336 0.0153,-0.0734 0.0456,-0.11512 0.1815,-0.23 0.42563,-0.57725 0.731,-1.04775 0.0936,-0.1705 0.18713,-0.25588 0.28063,-0.25588 0.0666,0 0.202,0.0553 0.40825,0.16263 0.11437,0.0635 0.13362,0.14712 0.0553,0.25025 -0.0819,0.113 -0.23663,0.50987 -0.4635,1.19262 -0.21575,0.66263 -0.36663,1.18238 -0.4485,1.55763 0.50775,-1.175 1.08387,-2.21063 1.72875,-3.10963 0.12225,-0.17075 0.2215,-0.25575 0.29587,-0.25575 0.067,0 0.15838,0.0456 0.275,0.1385 0.15625,0.0202 0.25363,0.0457 0.29575,0.0755 0.0631,0.0478 0.0954,0.141 0.0954,0.27988 z m 2.42575,-2.12737 c 0.061,0.0457 0.0896,0.0974 0.0896,0.157 0,0.11087 -0.16013,0.2855 -0.48113,0.52187 -0.21163,0.15275 -0.41775,0.20625 -0.6145,0.16263 -0.11263,-0.022 -0.208,-0.0655 -0.28975,-0.12713 -0.027,-0.0238 -0.0461,-0.0475 -0.0592,-0.0734 -0.0134,-0.0238 -0.0153,-0.0457 -0.01,-0.0595 0.0113,-0.0156 0.0344,-0.0199 0.0687,-0.0125 0.3415,-0.31137 0.5665,-0.53362 0.67538,-0.66862 0.086,-0.101 0.14699,-0.1505 0.18525,-0.1505 0.0666,0 0.21149,0.0833 0.43512,0.24975 z m -0.78838,2.54625 c -0.0896,0.52188 -0.32249,1.39288 -0.69837,2.60963 0.10875,-0.10138 0.25763,-0.28388 0.44638,-0.55175 0.027,-0.0357 0.0535,-0.0517 0.0784,-0.0517 0.0612,0 0.0687,0.0535 0.023,0.16275 -0.0191,0.0417 -0.17575,0.3075 -0.4695,0.79575 -0.2235,0.371 -0.38762,0.70049 -0.4925,0.98825 -0.0326,0.0892 -0.0952,0.13287 -0.18313,0.13287 -0.0897,0 -0.212,-0.0436 -0.36462,-0.13287 -0.0971,-0.0535 -0.145,-0.0954 -0.145,-0.123 0,-0.0219 0.021,-0.0733 0.061,-0.15088 0.20238,-0.36712 0.4255,-0.984 0.67175,-1.8475 0.235,-0.83725 0.36675,-1.4605 0.39725,-1.86737 0.0112,-0.17463 -0.006,-0.26175 -0.0517,-0.26175 -0.0323,0 -0.0914,0.0435 -0.1775,0.12887 l -0.34725,0.33738 c -0.12225,0.11512 -0.185,0.12112 -0.185,0.0177 0,-0.0316 0.017,-0.0713 0.0514,-0.117 0.17363,-0.25613 0.36075,-0.49813 0.55925,-0.72638 0.0591,-0.0655 0.1165,-0.0991 0.17175,-0.0991 0.061,0 0.14888,0.0417 0.26325,0.12675 0.17188,0.0479 0.26725,0.0755 0.28638,0.0876 0.084,0.0556 0.12787,0.15475 0.12787,0.30325 0,0.0697 -0.007,0.14913 -0.023,0.2385 z m 3.76338,-3.465 c 0.10488,0.0577 0.15662,0.12325 0.15662,0.19663 0,0.0514 -0.0344,0.0755 -0.10487,0.0755 -0.0156,0 -0.0384,-0.002 -0.0709,-0.007 -0.0323,-0.006 -0.0554,-0.007 -0.0705,-0.007 -0.14112,0 -0.31287,0.1605 -0.5135,0.48224 -0.17925,0.28563 -0.42725,0.91063 -0.74412,1.87126 -0.0286,0.0854 -0.04,0.13499 -0.0325,0.15062 0.01,0.028 0.0591,0.0439 0.14487,0.0478 0.21963,0.0199 0.51338,0.0125 0.88375,-0.0238 0.12613,-0.0125 0.18875,0.0436 0.18875,0.16875 0,0.0854 -0.0474,0.13675 -0.14487,0.15663 -0.0782,0.0125 -0.49038,0.0477 -1.23488,0.10512 -0.44825,1.35925 -0.71925,2.5105 -0.81675,3.453 -0.004,0.0496 -0.006,0.0954 -0.006,0.13288 0,0.13287 0.0323,0.19837 0.0954,0.19837 0.10125,0 0.40462,-0.254 0.91062,-0.76175 0.0609,-0.0616 0.11825,-0.0935 0.17363,-0.0935 0.0495,0 0.0779,0.0219 0.0896,0.0655 0.0112,0.0457 -0.006,0.0996 -0.0496,0.16263 -0.30363,0.415 -0.5995,0.76637 -0.88938,1.05799 -0.124,0.11876 -0.22537,0.18038 -0.30724,0.18038 -0.0821,0 -0.21013,-0.0673 -0.37976,-0.20413 -0.21412,-0.0577 -0.319,-0.17462 -0.319,-0.34962 0,-0.0255 0.002,-0.0575 0.01,-0.0929 0.13925,-0.9985 0.4085,-2.2305 0.811,-3.69138 -0.19625,-0.0276 -0.37587,-0.0535 -0.536,-0.0811 -0.0705,-0.0125 -0.107,-0.0575 -0.107,-0.139 0,-0.0892 0.0383,-0.14275 0.11263,-0.16263 0.0744,-0.0199 0.21187,-0.0616 0.41425,-0.12925 0.12225,-0.0415 0.24237,-0.0989 0.35675,-0.17437 0.39862,-1.282 0.71187,-2.11363 0.939,-2.49238 0.1315,-0.21825 0.271,-0.32562 0.41987,-0.32562 0.141,0 0.349,0.0772 0.62013,0.23212 z m 3.41037,3.54613 c -0.34337,0.9885 -0.58,1.81775 -0.70975,2.4885 0.0554,-0.0554 0.12975,-0.139 0.22113,-0.24988 0.0917,-0.113 0.14713,-0.17862 0.16975,-0.19837 0.0517,-0.0695 0.10913,-0.10526 0.168,-0.10526 0.0556,0 0.0842,0.0298 0.0842,0.0871 0,0.0357 -0.0153,0.0755 -0.046,0.12338 -0.349,0.53787 -0.58187,1.0835 -0.69837,1.633 -0.0326,0.15487 -0.084,0.23212 -0.151,0.23212 -0.0628,0 -0.181,-0.0616 -0.35113,-0.18462 -0.101,-0.0715 -0.15837,-0.12888 -0.17362,-0.17463 -0.0188,-0.0436 -0.0188,-0.12862 0,-0.25587 0.15662,-0.98425 0.35112,-1.80175 0.586,-2.45475 -0.3245,0.54775 -0.76525,1.153 -1.32438,1.81375 -0.48862,0.57937 -0.83987,0.9465 -1.05737,1.1055 -0.15663,0.11312 -0.275,0.16837 -0.35688,0.16837 -0.0669,0 -0.16962,-0.0553 -0.30712,-0.16837 -0.19875,-0.12325 -0.298,-0.29363 -0.298,-0.512 0,-0.0417 0.004,-0.0914 0.0112,-0.14488 0.0666,-0.57362 0.30937,-1.2405 0.72712,-2.00237 0.41775,-0.76213 0.89688,-1.40488 1.43713,-1.92676 0.1755,-0.17087 0.33212,-0.25412 0.4695,-0.25024 0.13362,0.007 0.38912,0.19037 0.76712,0.55174 0.0323,0.0319 0.0496,0.0634 0.0496,0.0993 0,0.0616 -0.04,0.0931 -0.11838,0.0931 -0.0286,0 -0.0574,-0.006 -0.0839,-0.0178 -0.26325,-0.11725 -0.47738,-0.11337 -0.6375,0.0125 -0.34938,0.26575 -0.73663,0.738 -1.16225,1.41275 -0.4925,0.77375 -0.78838,1.47212 -0.88925,2.0915 -0.004,0.0278 -0.006,0.0535 -0.006,0.0755 0,0.0971 0.0383,0.14675 0.11275,0.14675 0.12575,0 0.27637,-0.0911 0.45212,-0.27388 0.418,-0.42274 0.8645,-0.95424 1.3415,-1.59349 0.48863,-0.66288 0.80175,-1.16288 0.941,-1.50025 0.0992,-0.248 0.16413,-0.42263 0.19463,-0.52188 0.0478,-0.17475 0.10125,-0.26187 0.15662,-0.26187 0.0553,0 0.18663,0.0794 0.39113,0.23812 0.0857,0.0655 0.13362,0.12513 0.13925,0.18038 0.007,0.0456 -0.008,0.12712 -0.0496,0.24412 z m 3.20988,-0.78588 c 0,0.17463 -0.0456,0.4545 -0.13537,0.83763 -0.0325,0.13287 -0.0705,0.21825 -0.11088,0.25612 -0.0187,0.0195 -0.0819,0.0496 -0.19063,0.0871 -0.13749,0.0535 -0.22325,0.0815 -0.25762,0.0815 -0.0553,0 -0.0821,-0.0379 -0.0821,-0.11725 0,-0.0418 0.005,-0.0971 0.0209,-0.16863 0.0896,-0.383 0.12438,-0.64875 0.10313,-0.79762 -0.0191,-0.15088 0.023,-0.24413 0.12612,-0.282 0.18313,-0.0971 0.30113,-0.14675 0.35288,-0.14675 0.1145,0 0.17362,0.0833 0.17362,0.24987 z m -0.895,3.33775 c 0.0112,0.4645 -0.23675,0.782 -0.7445,0.95275 -0.0626,0.16263 -0.12188,0.27575 -0.17713,0.33738 -0.0861,0.0931 -0.214,0.14875 -0.38162,0.16262 -0.107,0.009 -0.22363,0.002 -0.34588,-0.0156 -0.221,-0.0358 -0.49037,-0.0776 -0.811,-0.129 -0.0896,-0.0159 -0.14274,-0.0715 -0.16199,-0.169 0.0152,-0.10488 0.11837,-0.1665 0.31287,-0.18638 0.2655,-0.0176 0.65663,-0.0673 1.17362,-0.14487 0.19488,-0.0457 0.332,-0.16088 0.41425,-0.34338 0.0478,-0.0931 0.0726,-0.20625 0.0726,-0.34337 0,-0.24413 -0.11663,-0.6725 -0.35113,-1.28975 -0.23287,-0.60125 -0.33987,-1.002 -0.32462,-1.2025 0.0287,-0.48413 0.45988,-0.82175 1.29012,-1.012 0.0823,-0.0199 0.12401,0.0125 0.12401,0.0931 0,0.0457 -0.0305,0.0833 -0.0896,0.10913 -0.4025,0.1825 -0.60313,0.40687 -0.60313,0.67475 0,0.10512 0.017,0.23625 0.0554,0.39287 0.0364,0.15663 0.14875,0.534 0.33588,1.13138 0.1375,0.4305 0.208,0.75787 0.21187,0.98187 z m 2.16987,-0.0113 c 0.0288,0.0535 -0.01,0.18463 -0.11837,0.38913 -0.30925,0.60912 -0.56087,1.23025 -0.75362,1.86125 0.078,0.0376 0.0475,0.10525 -0.0935,0.19662 -0.13925,0.0933 -0.27325,0.13075 -0.399,0.111 -0.0553,-0.007 -0.084,-0.0574 -0.084,-0.15062 0,-0.11338 0.0571,-0.38725 0.17362,-0.82563 0.168,-0.62325 0.3285,-1.03987 0.48088,-1.25037 0.067,-0.0894 0.15087,-0.15276 0.25187,-0.19238 0.34163,-0.123 0.523,-0.17087 0.54212,-0.139 z m 10.11263,-4.62187 c -0.0953,0.41887 -0.349,0.95075 -0.7575,1.59987 -0.4065,0.64663 -0.7615,1.0835 -1.06487,1.3075 -0.21188,0.15863 -0.41988,0.238 -0.62601,0.238 -0.11837,0 -0.4065,-0.0949 -0.86075,-0.2855 -0.0896,-0.0376 -0.1335,-0.0832 -0.1335,-0.13287 0,-0.0776 0.10088,-0.11738 0.30713,-0.11738 0.33987,0 0.59737,-0.0711 0.77675,-0.21437 0.35887,-0.28338 0.69662,-0.67063 1.01725,-1.16288 0.41037,-0.62287 0.6545,-1.23625 0.73275,-1.83712 0.0457,-0.33 -0.063,-0.52625 -0.32425,-0.5935 -0.11825,-0.0259 -0.2405,-0.028 -0.36275,-0.004 -0.57825,0.03 -1.13525,0.16287 -1.67175,0.395 -0.62225,2.33787 -1.1945,4.20525 -1.7175,5.60412 0.0305,-0.0125 0.14112,-0.0772 0.33025,-0.1985 0.1085,-0.0655 0.1945,-0.0931 0.25762,-0.0875 0.10875,0.0199 0.21363,0.13325 0.3185,0.33775 0.0858,0.1665 0.128,0.29163 0.128,0.37275 0,0.10525 -0.0649,0.15088 -0.19487,0.13925 -0.0932,-0.0125 -0.24775,0.0435 -0.4635,0.16263 -0.23488,0.129 -0.43725,0.27987 -0.60525,0.45425 -0.0817,0.0854 -0.1675,0.12687 -0.2575,0.12687 -0.12225,0 -0.27288,-0.0851 -0.45213,-0.25587 -0.11062,-0.11088 -0.16062,-0.20838 -0.14537,-0.2895 0.0112,-0.0655 0.0709,-0.11338 0.17962,-0.141 0.90825,-2.177 1.586,-4.16938 2.02863,-5.97513 -1.40075,0.65488 -2.10125,1.264 -2.10125,1.83163 0,0.0815 0.0112,0.16087 0.0384,0.23812 0.007,0.0297 0.0439,0.12888 0.10662,0.2955 0.0155,0.04 0.023,0.0754 0.023,0.11125 0,0.10738 -0.0417,0.16263 -0.124,0.16263 -0.1145,0 -0.33775,-0.33738 -0.66612,-1.012 -0.0475,-0.0931 -0.0724,-0.18638 -0.0724,-0.2795 0,-0.22863 0.13937,-0.47663 0.41388,-0.7445 0.191,-0.18038 0.54787,-0.42838 1.07475,-0.74413 0.56649,-0.33337 1.07037,-0.5835 1.51512,-0.754 0.0439,-0.19062 0.067,-0.3455 0.067,-0.46625 0,-0.15487 0.0361,-0.23212 0.1105,-0.23212 0.101,0 0.2785,0.14062 0.5325,0.4245 0.6145,-0.18675 1.0305,-0.27775 1.24625,-0.27388 0.41425,0.007 0.70788,0.23413 0.88363,0.68063 0.22287,0.17075 0.37212,0.30362 0.4465,0.40075 0.0935,0.12125 0.141,0.264 0.141,0.43087 0,0.119 -0.0248,0.28175 -0.0744,0.48788 z m 3.128,1.58175 c 0,0.50812 -0.0666,0.99212 -0.19662,1.45275 -0.04,0.14075 -0.0974,0.2105 -0.16801,0.2105 -0.0514,0 -0.16787,-0.0776 -0.34537,-0.2325 -0.0897,-0.0773 -0.11238,-0.1885 -0.0687,-0.33125 0.10525,-0.35325 0.15662,-0.63713 0.15662,-0.84938 0,-0.0733 -0.0135,-0.11125 -0.044,-0.11125 -0.0439,0 -0.11837,0.0695 -0.21749,0.2105 -0.77675,1.04988 -1.355,2.22838 -1.73838,3.53413 -0.124,0.41487 -0.22925,0.62112 -0.31325,0.62112 -0.0344,0 -0.181,-0.0674 -0.4425,-0.20237 -0.12625,-0.0655 -0.17012,-0.1945 -0.128,-0.38475 0.29375,-1.33975 0.6105,-2.47288 0.95037,-3.39338 -0.27675,0.3015 -0.45212,0.50775 -0.5265,0.62113 -0.0287,0.0454 -0.0709,0.0694 -0.12225,0.0694 -0.0631,0 -0.0954,-0.028 -0.0954,-0.0875 0,-0.0336 0.0153,-0.0734 0.0457,-0.11512 0.18138,-0.23 0.4255,-0.57725 0.731,-1.04775 0.0935,-0.1705 0.187,-0.25588 0.28025,-0.25588 0.067,0 0.20225,0.0553 0.4085,0.16263 0.1145,0.0635 0.13362,0.14712 0.0553,0.25025 -0.0817,0.113 -0.23625,0.50987 -0.46375,1.19262 -0.2155,0.66263 -0.36637,1.18238 -0.44825,1.55763 0.50737,-1.175 1.08387,-2.21063 1.72875,-3.10963 0.12225,-0.17075 0.2215,-0.25575 0.29587,-0.25575 0.067,0 0.15838,0.0456 0.275,0.1385 0.15625,0.0202 0.25363,0.0457 0.29588,0.0755 0.0626,0.0478 0.0952,0.141 0.0952,0.27988 z m 3.65075,0.69062 c -0.007,0.34513 -0.0876,0.80363 -0.24025,1.37338 -0.24238,0.89887 -0.58613,1.59737 -1.02863,2.09337 -0.235,0.26188 -0.4965,0.39513 -0.78274,0.39513 -0.11238,0 -0.25551,-0.0259 -0.43126,-0.0755 -0.349,-0.0238 -0.63525,-0.13888 -0.855,-0.34338 -0.23837,-0.22425 -0.35112,-0.51412 -0.33587,-0.867 0.0153,-0.411 0.151,-0.98437 0.4085,-1.72062 0.2825,-0.80188 0.57837,-1.37913 0.88375,-1.73238 0.14487,-0.17075 0.265,-0.25612 0.35675,-0.25612 0.128,0 0.33212,0.13675 0.61662,0.40675 0.0779,-0.0376 0.23838,-0.10913 0.48075,-0.214 0.12225,-0.044 0.21588,-0.0639 0.2785,-0.0639 0.145,0 0.30725,0.14113 0.4865,0.42488 0.11488,0.17262 0.17013,0.36712 0.16238,0.57937 z m -0.64312,0.16863 c 0.0269,-0.25788 0.0404,-0.42275 0.0404,-0.49388 0,-0.163 -0.0496,-0.24412 -0.147,-0.24412 -0.0365,0 -0.0861,0.007 -0.145,0.0238 l -0.86662,0.367 c -0.10138,0.0419 -0.15838,0.0635 -0.17363,0.0635 -0.0288,0 -0.0593,-0.0376 -0.0898,-0.111 -0.21575,0.27575 -0.41587,0.67262 -0.603,1.19237 -0.14525,0.40713 -0.24625,0.77213 -0.3015,1.0935 -0.0422,0.2165 -0.061,0.41488 -0.061,0.59138 0,0.59737 0.17538,0.88937 0.5305,0.87337 0.141,-0.004 0.29363,-0.0616 0.45775,-0.17462 0.31325,-0.2205 0.60513,-0.663 0.878,-1.32563 0.2615,-0.62325 0.42163,-1.24225 0.48088,-1.85562 z m 5.51374,-5.51088 c 0.0435,0.0357 0.0666,0.0737 0.0666,0.11725 0,0.0772 -0.044,0.11513 -0.13363,0.11513 -0.0344,0 -0.0688,-0.0125 -0.10662,-0.034 -0.17188,-0.0928 -0.29975,-0.14063 -0.38588,-0.14063 -0.23075,0 -0.48825,0.24025 -0.77075,0.7165 -1.00762,1.69263 -1.73687,3.91525 -2.18725,6.66738 0.38763,-0.68238 0.6775,-1.16463 0.86638,-1.44638 0.38762,-0.5815 0.79012,-1.06788 1.20825,-1.4605 0.20025,-0.18888 0.38163,-0.28387 0.54175,-0.28387 0.0823,0 0.21013,0.0535 0.3855,0.16262 0.33238,0.16263 0.483,0.40887 0.45425,0.73812 -0.0648,0.75225 -0.24412,1.49026 -0.54387,2.21488 -0.28988,0.70837 -0.63525,1.266 -1.03425,1.66888 -0.11063,0.11312 -0.22713,0.16874 -0.3455,0.16874 -0.24238,0 -0.57825,-0.28775 -1.00775,-0.86137 -0.0475,-0.0656 -0.0722,-0.12125 -0.0722,-0.16875 0,-0.0574 0.0323,-0.0871 0.0954,-0.0871 0.063,0 0.12613,0.0276 0.18488,0.0811 0.21975,0.1945 0.40862,0.292 0.56512,0.292 0.15238,0 0.2995,-0.0935 0.44088,-0.27988 0.25762,-0.34162 0.49037,-0.80362 0.69837,-1.38937 0.2385,-0.65875 0.35888,-1.248 0.35888,-1.76813 0,-0.20025 -0.0648,-0.3015 -0.19663,-0.3015 -0.0744,0 -0.15837,0.0417 -0.25012,0.12325 -0.46,0.41038 -0.92551,0.99388 -1.39888,1.754 -0.5,0.81176 -0.8625,1.59163 -1.08962,2.34388 -0.0421,0.14275 -0.0935,0.214 -0.15663,0.214 -0.0305,0 -0.0687,-0.0156 -0.11837,-0.0514 -0.18875,-0.13113 -0.29763,-0.20838 -0.32413,-0.23213 -0.0745,-0.0776 -0.11087,-0.17887 -0.11087,-0.30362 0,-0.0616 0.01,-0.13713 0.0269,-0.22638 0.43688,-2.46862 0.996,-4.57025 1.67738,-6.30637 0.51525,-1.30788 0.97725,-2.15513 1.38762,-2.54838 0.10663,-0.10312 0.21188,-0.15663 0.31288,-0.15663 0.10487,0 0.23662,0.0634 0.39675,0.19238 0.18712,0.15875 0.37425,0.3175 0.56525,0.47625 z m 2.68863,2.52425 c 0.061,0.0457 0.0896,0.0974 0.0896,0.157 0,0.11088 -0.16013,0.2855 -0.48075,0.52188 -0.21163,0.15274 -0.41813,0.20624 -0.6145,0.16262 -0.11263,-0.022 -0.208,-0.0655 -0.29013,-0.12712 -0.0266,-0.0238 -0.0457,-0.0475 -0.0593,-0.0734 -0.0134,-0.0238 -0.0152,-0.0457 -0.01,-0.0595 0.0112,-0.0156 0.0348,-0.0199 0.0687,-0.0125 0.3415,-0.31137 0.56688,-0.53362 0.67563,-0.66862 0.0857,-0.101 0.14712,-0.1505 0.185,-0.1505 0.067,0 0.21187,0.0833 0.43512,0.24975 z m -0.788,2.54625 c -0.0896,0.52188 -0.3225,1.39288 -0.69838,2.60963 0.10875,-0.10138 0.25751,-0.28388 0.44638,-0.55175 0.0266,-0.0358 0.0535,-0.0518 0.0784,-0.0518 0.0609,0 0.0687,0.0535 0.0226,0.16275 -0.0188,0.0417 -0.17538,0.3075 -0.4695,0.79575 -0.22325,0.371 -0.38725,0.7005 -0.49213,0.98825 -0.0326,0.0892 -0.0954,0.13287 -0.18325,0.13287 -0.0896,0 -0.21187,-0.0436 -0.3645,-0.13287 -0.0975,-0.0535 -0.145,-0.0954 -0.145,-0.123 0,-0.0219 0.0209,-0.0733 0.061,-0.15088 0.20226,-0.36712 0.4255,-0.984 0.67175,-1.8475 0.23463,-0.83725 0.36638,-1.4605 0.39688,-1.86737 0.0112,-0.17463 -0.006,-0.26175 -0.0514,-0.26175 -0.0326,0 -0.0918,0.0435 -0.1775,0.12887 l -0.34726,0.33738 c -0.12225,0.11512 -0.18537,0.12112 -0.18537,0.0177 0,-0.0316 0.0174,-0.0713 0.0517,-0.117 0.17362,-0.25613 0.36075,-0.49813 0.55912,-0.72638 0.0589,-0.0655 0.11626,-0.0991 0.17188,-0.0991 0.061,0 0.1485,0.0417 0.26325,0.12675 0.17187,0.0479 0.26725,0.0755 0.28637,0.0876 0.0836,0.0556 0.1275,0.15475 0.1275,0.30325 0,0.0697 -0.008,0.14913 -0.0226,0.2385 z m 3.76325,-3.465 c 0.105,0.0577 0.15662,0.12325 0.15662,0.19663 0,0.0514 -0.0344,0.0755 -0.10512,0.0755 -0.0153,0 -0.038,-0.002 -0.0706,-0.007 -0.0325,-0.006 -0.0553,-0.008 -0.0705,-0.008 -0.14137,0 -0.31287,0.16051 -0.51337,0.48226 -0.17925,0.28562 -0.42738,0.91062 -0.7445,1.87125 -0.0282,0.0854 -0.04,0.135 -0.0323,0.15062 0.01,0.028 0.0593,0.0439 0.145,0.0478 0.21962,0.0199 0.51337,0.0125 0.88362,-0.0238 0.12588,-0.0125 0.18888,0.0436 0.18888,0.16875 0,0.0854 -0.0478,0.13675 -0.14488,0.15662 -0.0784,0.0125 -0.49037,0.0478 -1.23487,0.10513 -0.44825,1.35925 -0.71925,2.5105 -0.81675,3.453 -0.004,0.0496 -0.006,0.0954 -0.006,0.13288 0,0.13287 0.0323,0.19837 0.0953,0.19837 0.101,0 0.40475,-0.254 0.91037,-0.76175 0.0609,-0.0616 0.11825,-0.0935 0.17363,-0.0935 0.0495,0 0.0782,0.0219 0.0896,0.0655 0.0112,0.0457 -0.006,0.0996 -0.0496,0.16263 -0.30338,0.415 -0.59913,0.76637 -0.889,1.058 -0.12438,0.11875 -0.22538,0.18037 -0.30763,0.18037 -0.0817,0 -0.20975,-0.0673 -0.37975,-0.20412 -0.21375,-0.0577 -0.31862,-0.17463 -0.31862,-0.34963 0,-0.0255 0.001,-0.0575 0.01,-0.0929 0.13925,-0.9985 0.4085,-2.2305 0.811,-3.69138 -0.19663,-0.0276 -0.37588,-0.0535 -0.53638,-0.0811 -0.0705,-0.0125 -0.10675,-0.0575 -0.10675,-0.139 0,-0.0892 0.038,-0.14275 0.11275,-0.16263 0.0744,-0.0199 0.2115,-0.0616 0.41388,-0.12925 0.12225,-0.0415 0.24237,-0.0989 0.35712,-0.17437 0.39863,-1.282 0.7115,-2.11363 0.93863,-2.49238 0.13175,-0.21825 0.271,-0.32562 0.41987,-0.32562 0.14138,0 0.34938,0.0772 0.62038,0.23212 z m 3.4105,3.54613 c -0.34375,0.9885 -0.58037,1.81775 -0.71013,2.4885 0.0554,-0.0554 0.12975,-0.139 0.22151,-0.24988 0.0917,-0.113 0.147,-0.17862 0.16975,-0.19837 0.0517,-0.0695 0.10875,-0.10525 0.16787,-0.10525 0.0554,0 0.084,0.0298 0.084,0.0871 0,0.0358 -0.0153,0.0755 -0.0456,0.12338 -0.34938,0.53787 -0.58225,1.0835 -0.6985,1.633 -0.0325,0.15487 -0.0839,0.23212 -0.15088,0.23212 -0.0631,0 -0.18112,-0.0616 -0.35112,-0.18462 -0.101,-0.0715 -0.15838,-0.12888 -0.17363,-0.17463 -0.0191,-0.0436 -0.0191,-0.12862 0,-0.25587 0.15663,-0.98425 0.35113,-1.80175 0.58563,-2.45475 -0.32413,0.54775 -0.765,1.153 -1.32438,1.81375 -0.48837,0.57937 -0.8395,0.9465 -1.057,1.1055 -0.15662,0.11312 -0.275,0.16837 -0.35687,0.16837 -0.0669,0 -0.17,-0.0553 -0.3075,-0.16837 -0.1985,-0.12325 -0.29763,-0.29363 -0.29763,-0.512 0,-0.0417 0.004,-0.0914 0.0113,-0.14488 0.067,-0.57362 0.30938,-1.2405 0.7275,-2.00237 0.41775,-0.76213 0.89675,-1.40488 1.43675,-1.92675 0.17575,-0.17088 0.33213,-0.25413 0.4695,-0.25025 0.13363,0.007 0.3895,0.19037 0.76713,0.55175 0.0326,0.0319 0.0496,0.0634 0.0496,0.0992 0,0.0616 -0.04,0.0931 -0.11837,0.0931 -0.0282,0 -0.057,-0.006 -0.0836,-0.0177 -0.26362,-0.11725 -0.47725,-0.11338 -0.63775,0.0125 -0.349,0.26575 -0.73625,0.738 -1.16187,1.41275 -0.4925,0.77375 -0.78838,1.47213 -0.88938,2.0915 -0.004,0.0277 -0.006,0.0535 -0.006,0.0755 0,0.0971 0.0383,0.14675 0.11275,0.14675 0.12613,0 0.27663,-0.0911 0.45238,-0.27387 0.41775,-0.42275 0.86425,-0.95425 1.3415,-1.5935 0.48862,-0.66288 0.8015,-1.16288 0.94075,-1.50025 0.0996,-0.248 0.16412,-0.42263 0.19487,-0.52188 0.0479,-0.17475 0.101,-0.26187 0.15638,-0.26187 0.0556,0 0.187,0.0794 0.3915,0.23812 0.0858,0.0655 0.13325,0.12513 0.13925,0.18038 0.007,0.0456 -0.007,0.12712 -0.0496,0.24412 z m 3.20988,-0.78588 c 0,0.17463 -0.046,0.4545 -0.13575,0.83763 -0.0323,0.13287 -0.0705,0.21825 -0.1105,0.25612 -0.0191,0.0195 -0.0823,0.0496 -0.19063,0.0871 -0.13787,0.0535 -0.22362,0.0815 -0.258,0.0815 -0.0553,0 -0.0819,-0.0379 -0.0819,-0.11725 0,-0.0418 0.006,-0.0971 0.021,-0.16863 0.0896,-0.383 0.124,-0.64875 0.10312,-0.79762 -0.0191,-0.15088 0.0226,-0.24413 0.12575,-0.282 0.18313,-0.0971 0.3015,-0.14675 0.35325,-0.14675 0.1145,0 0.17363,0.0833 0.17363,0.24987 z m -0.89501,3.33775 c 0.0113,0.4645 -0.23674,0.782 -0.74449,0.95275 -0.0628,0.16263 -0.12188,0.27575 -0.1775,0.33738 -0.0857,0.0931 -0.21363,0.14875 -0.38163,0.16262 -0.107,0.009 -0.22325,0.002 -0.3455,-0.0156 -0.22112,-0.0358 -0.49037,-0.0776 -0.811,-0.129 -0.0896,-0.0159 -0.14313,-0.0715 -0.162,-0.169 0.0153,-0.10488 0.118,-0.1665 0.31288,-0.18638 0.26512,-0.0176 0.65662,-0.0673 1.17362,-0.14487 0.19487,-0.0457 0.332,-0.16088 0.41413,-0.34338 0.0479,-0.0931 0.0724,-0.20625 0.0724,-0.34337 0,-0.24413 -0.11625,-0.6725 -0.35088,-1.28975 -0.23312,-0.60125 -0.33974,-1.002 -0.32449,-1.2025 0.0286,-0.48413 0.45987,-0.82175 1.29012,-1.012 0.0819,-0.0199 0.124,0.0125 0.124,0.0931 0,0.0457 -0.0305,0.0832 -0.0896,0.10913 -0.40287,0.1825 -0.60312,0.40687 -0.60312,0.67475 0,0.10512 0.017,0.23625 0.0553,0.39287 0.0361,0.15663 0.14887,0.534 0.336,1.13138 0.13737,0.4305 0.208,0.75787 0.21187,0.98187"
         style="fill:#656263;fill-opacity:1;fill-rule:nonzero;stroke:none"
         id="path4888" />
      <path
         d="m 407.70101,969.57791 c 0.0284,0.0535 -0.01,0.18463 -0.11875,0.38913 -0.30887,0.60912 -0.56087,1.23024 -0.75362,1.86125 0.0784,0.0376 0.0479,0.10525 -0.0935,0.19662 -0.13925,0.0933 -0.27288,0.13075 -0.39863,0.111 -0.0553,-0.007 -0.084,-0.0574 -0.084,-0.15063 0,-0.11337 0.057,-0.38725 0.17363,-0.82562 0.168,-0.62325 0.32812,-1.03988 0.48087,-1.25038 0.0669,-0.0894 0.1505,-0.15275 0.25188,-0.19237 0.34162,-0.123 0.523,-0.17087 0.54212,-0.139 z m 7.89313,-4.62187 c -0.12975,1.1275 -0.47338,2.38362 -1.02863,3.76662 -0.65275,1.633 -1.2845,2.453 -1.895,2.46075 -0.3685,0.004 -0.81887,-0.20225 -1.3475,-0.61725 -0.0401,-0.0336 -0.061,-0.0794 -0.061,-0.13287 0,-0.13713 0.0592,-0.20438 0.17938,-0.20438 0.0286,0 0.0591,0.007 0.0879,0.0238 0.32063,0.17075 0.59525,0.25788 0.82237,0.26213 0.496,0.0156 1.042,-0.75013 1.6395,-2.296 0.56863,-1.4925 0.87588,-2.83013 0.91588,-4.0125 0.0113,-0.38338 -0.17187,-0.57575 -0.54775,-0.57575 -0.0591,0 -0.12575,0.006 -0.19637,0.018 -0.29013,0.0415 -0.62038,0.28175 -0.9885,0.72037 -0.41038,0.488 -0.69838,1.04388 -0.86676,1.66888 -0.0226,0.0813 -0.034,0.15875 -0.034,0.23212 0,0.14287 0.0475,0.27575 0.13925,0.39475 0.0857,0.0896 0.1715,0.17888 0.25762,0.26825 0.0417,0.0435 0.061,0.0811 0.061,0.11688 0,0.0734 -0.0554,0.10912 -0.168,0.10912 -0.044,0 -0.0823,-0.007 -0.11063,-0.0216 -0.32062,-0.19875 -0.54025,-0.35925 -0.66037,-0.48438 -0.141,-0.15087 -0.21188,-0.3235 -0.21188,-0.51587 0,-0.1825 0.0669,-0.43263 0.2005,-0.75013 0.1945,-0.4705 0.48263,-0.92862 0.86638,-1.379 0.36637,-0.42912 0.69475,-0.70875 0.98462,-0.8355 0.13363,-0.0639 0.41038,-0.028 0.8285,0.10313 0.0247,-0.0341 0.0647,-0.0518 0.11613,-0.0518 0.14537,0 0.43162,0.14487 0.855,0.43687 0.191,0.12688 0.2445,0.5595 0.16237,1.29538 z m 4.33762,1.73837 c -0.49387,0.95675 -0.86625,2.08175 -1.1125,3.37188 0.10513,-0.19063 0.231,-0.43275 0.3815,-0.72638 0.0174,-0.0536 0.0479,-0.0815 0.0879,-0.0815 0.0575,0 0.084,0.0379 0.084,0.11125 0,0.0216 -0.004,0.0474 -0.0152,0.0754 -0.23838,0.56562 -0.395,1.00212 -0.4695,1.30787 -0.0456,0.1945 -0.10488,0.2895 -0.17925,0.2895 -0.0744,0 -0.21925,-0.0751 -0.43688,-0.22612 -0.11475,-0.0854 -0.15487,-0.23625 -0.11662,-0.45238 0.15662,-0.8455 0.34375,-1.57962 0.56487,-2.20475 -0.71925,1.21863 -1.3245,2.11538 -1.81275,2.693 -0.107,0.12688 -0.22537,0.19025 -0.35112,0.19025 -0.10488,0 -0.22713,-0.0436 -0.3685,-0.13287 -0.25763,-0.0457 -0.38738,-0.18638 -0.38738,-0.41888 0,-0.0414 0.004,-0.0892 0.0112,-0.13887 0.0935,-1.10938 0.28813,-2.02988 0.58213,-2.76238 -0.063,0.0618 -0.15838,0.15313 -0.2845,0.274 -0.0496,0.0417 -0.0857,0.0535 -0.11225,0.0336 -0.0305,-0.0216 -0.0252,-0.0674 0.017,-0.13288 0.2005,-0.3055 0.32062,-0.50812 0.35675,-0.60525 0.11662,-0.3015 0.23675,-0.53575 0.36462,-0.70262 0.0666,-0.085 0.1375,-0.129 0.21188,-0.129 0.101,0 0.248,0.0639 0.44075,0.18675 0.0535,0.0359 0.0784,0.0695 0.0784,0.10525 0,0 -0.04,0.0635 -0.12225,0.19237 -0.18712,0.29375 -0.38375,0.81363 -0.5935,1.55763 -0.22712,0.80575 -0.34162,1.46275 -0.3455,1.97087 0,0.1665 0.0326,0.24975 0.10138,0.24975 0.0591,0 0.15625,-0.0713 0.28987,-0.21612 0.28625,-0.3175 0.70225,-0.917 1.24613,-1.80175 0.48112,-0.77813 0.771,-1.28588 0.87237,-1.52225 0.168,-0.39688 0.30325,-0.62888 0.4085,-0.69838 0.0666,-0.0457 0.12588,-0.0694 0.17938,-0.0694 0.0514,0 0.15262,0.0396 0.3015,0.12075 0.14875,0.0836 0.22325,0.14287 0.22325,0.18075 0,0.0113 -0.0135,0.0276 -0.0383,0.0475 -0.0266,0.0197 -0.0457,0.0396 -0.0575,0.0634 z m 2.93138,-0.4425 c 0,0.17463 -0.0456,0.4545 -0.13525,0.83763 -0.0323,0.13287 -0.0706,0.21825 -0.11063,0.25612 -0.0191,0.0195 -0.0821,0.0496 -0.191,0.0871 -0.1375,0.0535 -0.22325,0.0815 -0.25762,0.0815 -0.0553,0 -0.0821,-0.0379 -0.0821,-0.11725 0,-0.0418 0.006,-0.0971 0.0209,-0.16863 0.0896,-0.383 0.12437,-0.64875 0.10312,-0.79762 -0.0188,-0.15088 0.023,-0.24413 0.12613,-0.282 0.18325,-0.0971 0.3015,-0.14675 0.35287,-0.14675 0.1145,0 0.17363,0.0833 0.17363,0.24987 z m -0.895,3.33775 c 0.0112,0.4645 -0.23638,0.782 -0.74413,0.95275 -0.063,0.16263 -0.12225,0.27575 -0.1775,0.33738 -0.0857,0.0931 -0.21362,0.14875 -0.38162,0.16262 -0.107,0.009 -0.22325,0.002 -0.3455,-0.0156 -0.22138,-0.0358 -0.49075,-0.0776 -0.811,-0.129 -0.0896,-0.0159 -0.14313,-0.0715 -0.16225,-0.169 0.0153,-0.10488 0.11825,-0.1665 0.31287,-0.18638 0.26538,-0.0176 0.6565,-0.0673 1.17388,-0.14487 0.19449,-0.0457 0.332,-0.16088 0.41387,-0.34338 0.0478,-0.0931 0.0726,-0.20625 0.0726,-0.34337 0,-0.24413 -0.11625,-0.6725 -0.35113,-1.28975 -0.23287,-0.60125 -0.33987,-1.002 -0.32462,-1.2025 0.0288,-0.48413 0.46025,-0.82175 1.29012,-1.012 0.0822,-0.0199 0.124,0.0125 0.124,0.0931 0,0.0457 -0.0305,0.0833 -0.0896,0.10913 -0.4025,0.1825 -0.603,0.40687 -0.603,0.67475 0,0.10512 0.0172,0.23625 0.0556,0.39287 0.0361,0.15663 0.14838,0.534 0.3355,1.13138 0.1375,0.4305 0.20838,0.75787 0.21188,0.98187 z m 4.2045,-6.098 c 0.10487,0.0577 0.15625,0.12325 0.15625,0.19663 0,0.0514 -0.0344,0.0755 -0.10488,0.0755 -0.0153,0 -0.0383,-0.002 -0.0705,-0.007 -0.0326,-0.006 -0.0556,-0.007 -0.0709,-0.007 -0.141,0 -0.31288,0.1605 -0.51338,0.48224 -0.17937,0.28563 -0.42737,0.91063 -0.74412,1.87126 -0.0288,0.0854 -0.04,0.13499 -0.0323,0.15062 0.009,0.028 0.0591,0.0439 0.14487,0.0478 0.21938,0.0199 0.5135,0.0125 0.88375,-0.0238 0.12575,-0.0125 0.18888,0.0436 0.18888,0.16875 0,0.0854 -0.0479,0.13675 -0.145,0.15663 -0.0782,0.0125 -0.49075,0.0477 -1.23475,0.10512 -0.44863,1.35925 -0.71976,2.5105 -0.81713,3.453 -0.004,0.0496 -0.006,0.0954 -0.006,0.13288 0,0.13287 0.0325,0.19837 0.0956,0.19837 0.101,0 0.40462,-0.254 0.91025,-0.76175 0.061,-0.0616 0.11837,-0.0935 0.17362,-0.0935 0.0496,0 0.0784,0.0219 0.0896,0.0655 0.0112,0.0457 -0.006,0.0996 -0.0496,0.16263 -0.30325,0.415 -0.59912,0.76637 -0.88937,1.05799 -0.124,0.11876 -0.22525,0.18038 -0.30713,0.18038 -0.0823,0 -0.20975,-0.0673 -0.37987,-0.20413 -0.21363,-0.0577 -0.3185,-0.17462 -0.3185,-0.34962 0,-0.0255 0.001,-0.0575 0.009,-0.0929 0.13962,-0.9985 0.40862,-2.2305 0.8115,-3.69138 -0.19663,-0.0276 -0.376,-0.0535 -0.5365,-0.0811 -0.0705,-0.0125 -0.10663,-0.0575 -0.10663,-0.139 0,-0.0892 0.0379,-0.14275 0.11263,-0.16263 0.0745,-0.0199 0.21162,-0.0616 0.41387,-0.12925 0.12225,-0.0415 0.24238,-0.0989 0.35713,-0.17437 0.39862,-1.282 0.7115,-2.11363 0.93862,-2.49238 0.13188,-0.21825 0.27113,-0.32562 0.42,-0.32562 0.14138,0 0.34925,0.0772 0.62038,0.23212 z m 1.878,0.91875 c 0.0609,0.0457 0.0896,0.0974 0.0896,0.157 0,0.11088 -0.1605,0.2855 -0.48125,0.52188 -0.2115,0.15274 -0.41775,0.20625 -0.61437,0.16262 -0.11263,-0.022 -0.208,-0.0655 -0.29025,-0.12712 -0.0265,-0.0238 -0.0456,-0.0475 -0.0591,-0.0734 -0.0131,-0.0238 -0.0152,-0.0457 -0.01,-0.0595 0.0112,-0.0156 0.0344,-0.0199 0.0686,-0.0125 0.34162,-0.31137 0.567,-0.53362 0.67575,-0.66862 0.0857,-0.101 0.14712,-0.1505 0.185,-0.1505 0.067,0 0.21187,0.0833 0.4355,0.24975 z m -0.78838,2.54625 c -0.0898,0.52188 -0.3225,1.39288 -0.6985,2.60963 0.10888,-0.10138 0.25763,-0.28388 0.4465,-0.55175 0.0266,-0.0357 0.0535,-0.0517 0.0784,-0.0517 0.0609,0 0.0686,0.0535 0.0226,0.16275 -0.0187,0.0417 -0.17537,0.3075 -0.46912,0.79575 -0.22363,0.371 -0.38763,0.7005 -0.4925,0.98825 -0.0326,0.0892 -0.0954,0.13287 -0.18325,0.13287 -0.0896,0 -0.21188,-0.0436 -0.36463,-0.13287 -0.097,-0.0535 -0.14487,-0.0954 -0.14487,-0.123 0,-0.0219 0.0209,-0.0733 0.061,-0.15088 0.20225,-0.36712 0.4255,-0.984 0.67175,-1.8475 0.23487,-0.83725 0.36637,-1.4605 0.39687,-1.86737 0.0112,-0.17463 -0.006,-0.26175 -0.0514,-0.26175 -0.0326,0 -0.0917,0.0435 -0.1775,0.12887 l -0.34725,0.33738 c -0.12225,0.11512 -0.185,0.12112 -0.185,0.0177 0,-0.0316 0.017,-0.0713 0.0514,-0.117 0.17363,-0.25613 0.36075,-0.49813 0.55913,-0.72638 0.0592,-0.0655 0.11662,-0.0991 0.17187,-0.0991 0.0609,0 0.14875,0.0417 0.26325,0.12675 0.1715,0.0479 0.26713,0.0755 0.28625,0.0876 0.084,0.0556 0.12763,0.15475 0.12763,0.30325 0,0.0697 -0.007,0.14913 -0.0226,0.2385 z m 3.76325,-3.465 c 0.10488,0.0577 0.15663,0.12325 0.15663,0.19663 0,0.0514 -0.0344,0.0755 -0.10488,0.0755 -0.0156,0 -0.0383,-0.002 -0.0709,-0.007 -0.0323,-0.006 -0.0553,-0.007 -0.0705,-0.007 -0.14138,0 -0.31288,0.1605 -0.51338,0.48225 -0.17937,0.28562 -0.42737,0.91062 -0.74412,1.87125 -0.0288,0.0854 -0.04,0.135 -0.0326,0.15062 0.01,0.028 0.0592,0.0439 0.145,0.0478 0.21963,0.0199 0.51338,0.0125 0.88363,-0.0238 0.12612,-0.0125 0.18887,0.0436 0.18887,0.16875 0,0.0854 -0.0475,0.13675 -0.14487,0.15663 -0.0784,0.0125 -0.4905,0.0478 -1.23488,0.10512 -0.44825,1.35925 -0.71925,2.5105 -0.81675,3.453 -0.004,0.0496 -0.006,0.0954 -0.006,0.13288 0,0.13287 0.0323,0.19837 0.0953,0.19837 0.101,0 0.40462,-0.254 0.91025,-0.76175 0.0614,-0.0616 0.11838,-0.0935 0.174,-0.0935 0.0493,0 0.078,0.0219 0.0896,0.0655 0.0112,0.0457 -0.006,0.0996 -0.0495,0.16263 -0.30375,0.415 -0.59963,0.76637 -0.88938,1.058 -0.12412,0.11875 -0.22537,0.18037 -0.30762,0.18037 -0.0819,0 -0.20975,-0.0673 -0.3795,-0.20412 -0.214,-0.0577 -0.31888,-0.17463 -0.31888,-0.34963 0,-0.0255 0.001,-0.0575 0.01,-0.0929 0.13925,-0.9985 0.4085,-2.2305 0.811,-3.69138 -0.19663,-0.0276 -0.37588,-0.0535 -0.53613,-0.0811 -0.0705,-0.0125 -0.107,-0.0575 -0.107,-0.139 0,-0.0892 0.0382,-0.14275 0.11275,-0.16263 0.0744,-0.0199 0.21188,-0.0616 0.41375,-0.12925 0.12225,-0.0415 0.24238,-0.0989 0.35725,-0.17437 0.39863,-1.282 0.71188,-2.11363 0.939,-2.49238 0.13138,-0.21825 0.27063,-0.32562 0.41988,-0.32562 0.141,0 0.349,0.0772 0.62,0.23212 z m 1.878,0.91875 c 0.0609,0.0457 0.0896,0.0974 0.0896,0.157 0,0.11088 -0.16013,0.2855 -0.48088,0.52188 -0.21187,0.15275 -0.418,0.20625 -0.61475,0.16262 -0.11225,-0.022 -0.208,-0.0655 -0.28975,-0.12712 -0.027,-0.0238 -0.0461,-0.0475 -0.0592,-0.0734 -0.0134,-0.0238 -0.0153,-0.0457 -0.01,-0.0595 0.0112,-0.0156 0.0344,-0.0199 0.0687,-0.0125 0.3415,-0.31137 0.5665,-0.53362 0.67563,-0.66862 0.0857,-0.101 0.14675,-0.1505 0.185,-0.1505 0.0666,0 0.21187,0.0833 0.43512,0.24975 z m -0.78837,2.54625 c -0.0896,0.52188 -0.3225,1.39288 -0.69838,2.60963 0.10875,-0.10138 0.25763,-0.28388 0.44675,-0.55175 0.0266,-0.0357 0.0531,-0.0517 0.078,-0.0517 0.0613,0 0.0687,0.0535 0.023,0.16275 -0.0191,0.0417 -0.17575,0.3075 -0.4695,0.79575 -0.22325,0.371 -0.38725,0.7005 -0.4925,0.98825 -0.0323,0.0892 -0.0952,0.13287 -0.18312,0.13287 -0.0898,0 -0.21163,-0.0436 -0.36425,-0.13287 -0.0975,-0.0535 -0.14538,-0.0954 -0.14538,-0.123 0,-0.0219 0.021,-0.0733 0.061,-0.15088 0.20225,-0.36712 0.42588,-0.984 0.67175,-1.8475 0.235,-0.83725 0.36675,-1.4605 0.39725,-1.86737 0.0112,-0.17463 -0.006,-0.26175 -0.0517,-0.26175 -0.0323,0 -0.0914,0.0435 -0.17712,0.12887 l -0.34763,0.33738 c -0.12187,0.11512 -0.185,0.12112 -0.185,0.0177 0,-0.0316 0.017,-0.0713 0.0514,-0.117 0.17363,-0.25613 0.36075,-0.49813 0.55913,-0.72638 0.0592,-0.0655 0.11662,-0.0991 0.17187,-0.0991 0.0614,0 0.14888,0.0417 0.26325,0.12675 0.17188,0.0479 0.26725,0.0755 0.28638,0.0876 0.084,0.0556 0.12787,0.15475 0.12787,0.30325 0,0.0697 -0.007,0.14913 -0.023,0.2385 z m 4.49637,0.0811 c -0.34362,0.9885 -0.58037,1.81775 -0.71,2.4885 0.0553,-0.0554 0.12963,-0.139 0.22138,-0.24988 0.0915,-0.113 0.14712,-0.17862 0.16975,-0.19837 0.0517,-0.0695 0.10887,-0.10525 0.168,-0.10525 0.0553,0 0.084,0.0297 0.084,0.0871 0,0.0357 -0.0152,0.0755 -0.0457,0.12338 -0.34938,0.53787 -0.58213,1.0835 -0.69838,1.633 -0.0326,0.15487 -0.084,0.23212 -0.151,0.23212 -0.0626,0 -0.181,-0.0616 -0.35112,-0.18462 -0.101,-0.0715 -0.15838,-0.12888 -0.17363,-0.17463 -0.0191,-0.0436 -0.0191,-0.12862 0,-0.25587 0.15663,-0.98425 0.35113,-1.80175 0.58613,-2.45475 -0.32463,0.54775 -0.76538,1.153 -1.32488,1.81375 -0.48825,0.57937 -0.83937,0.9465 -1.057,1.1055 -0.15662,0.11312 -0.27487,0.16837 -0.35675,0.16837 -0.067,0 -0.17012,-0.0553 -0.30762,-0.16837 -0.19838,-0.12325 -0.29763,-0.29363 -0.29763,-0.512 0,-0.0417 0.004,-0.0914 0.0112,-0.14488 0.067,-0.57362 0.30938,-1.2405 0.72738,-2.00237 0.41787,-0.76213 0.89687,-1.40488 1.43687,-1.92675 0.17575,-0.17088 0.33238,-0.25413 0.4695,-0.25025 0.13363,0.007 0.38938,0.19037 0.76713,0.55175 0.0326,0.0319 0.0496,0.0634 0.0496,0.0992 0,0.0616 -0.0401,0.0931 -0.118,0.0931 -0.0288,0 -0.0574,-0.006 -0.084,-0.0178 -0.26362,-0.11725 -0.47725,-0.11337 -0.6375,0.0125 -0.34925,0.26575 -0.73662,0.738 -1.16212,1.41275 -0.4925,0.77375 -0.78838,1.47213 -0.88938,2.0915 -0.004,0.0278 -0.006,0.0535 -0.006,0.0755 0,0.0971 0.0383,0.14675 0.11263,0.14675 0.12612,0 0.27675,-0.0911 0.4525,-0.27387 0.41812,-0.42275 0.86425,-0.95425 1.3415,-1.5935 0.48862,-0.66288 0.8015,-1.16288 0.94075,-1.50025 0.0995,-0.248 0.164,-0.42263 0.19487,-0.52188 0.0479,-0.17475 0.101,-0.26187 0.15625,-0.26187 0.0556,0 0.18713,0.0794 0.3915,0.23812 0.0857,0.0655 0.13325,0.12513 0.13925,0.18038 0.007,0.0456 -0.008,0.12712 -0.0496,0.24412"
         style="fill:#656263;fill-opacity:1;fill-rule:nonzero;stroke:none"
         id="path4890" />
      <path
         d="m 375.07139,980.44854 c 0,0.83937 0,1.52962 -0.0421,1.89699 -0.0334,0.25376 -0.0755,0.44613 -0.2435,0.48088 -0.0757,0.0174 -0.17675,0.035 -0.25262,0.035 -0.0503,0 -0.0669,0.0259 -0.0669,0.0521 0,0.0543 0.0421,0.0716 0.13463,0.0716 0.12612,0 0.31925,-0.0174 0.4875,-0.0174 0.1765,-0.01 0.31962,-0.01 0.33625,-0.01 0.12612,0 0.32812,0.01 0.65587,0.0276 0.32775,0.009 0.79025,0.0261 1.42088,0.0261 0.32775,0 0.39475,0 0.45387,-0.22887 0.0422,-0.18312 0.10913,-0.77775 0.10913,-0.8475 0,-0.0614 0,-0.13112 -0.0503,-0.13112 -0.0421,0 -0.0589,0.0347 -0.0759,0.13112 -0.0587,0.35825 -0.15975,0.53325 -0.37837,0.62887 -0.21863,0.0964 -0.58825,0.0964 -0.80688,0.0964 -0.82412,0 -0.94987,-0.11375 -0.97537,-0.71675 -0.009,-0.1835 0,-1.19762 0,-1.49487 l 0,-0.76938 c 0,-0.035 0.017,-0.0612 0.0588,-0.0612 0.14312,0 0.9755,0.0177 1.20225,0.044 0.32812,0.035 0.40362,0.1835 0.43725,0.30575 0.0336,0.11375 0.0336,0.20125 0.0336,0.28838 0,0.044 0.0168,0.0788 0.0589,0.0788 0.0589,0 0.0589,-0.0961 0.0589,-0.16588 0,-0.0612 0.017,-0.38475 0.0336,-0.55987 0.0255,-0.288 0.0673,-0.43688 0.0673,-0.48925 0,-0.0525 -0.017,-0.0699 -0.0418,-0.0699 -0.034,0 -0.0677,0.044 -0.1265,0.11375 -0.0755,0.0871 -0.19313,0.1045 -0.39513,0.12188 -0.19312,0.0178 -1.22737,0.0178 -1.33687,0.0178 -0.0418,0 -0.0503,-0.0263 -0.0503,-0.0875 l 0,-2.41263 c 0,-0.061 0.017,-0.0875 0.0503,-0.0875 0.0925,0 1.00912,0.009 1.152,0.0265 0.45387,0.0525 0.53812,0.157 0.597,0.297 0.0418,0.10487 0.0504,0.25325 0.0504,0.31463 0,0.0701 0.017,0.11375 0.0673,0.11375 0.0336,0 0.0504,-0.0525 0.0589,-0.0964 0.017,-0.10462 0.0336,-0.48938 0.0421,-0.5765 0.0251,-0.24487 0.0674,-0.35012 0.0674,-0.41137 0,-0.0433 -0.009,-0.0784 -0.0337,-0.0784 -0.0421,0 -0.0757,0.0351 -0.118,0.0436 -0.0669,0.0174 -0.20163,0.0348 -0.36138,0.0439 -0.19312,0.009 -1.86625,0.009 -1.92512,0.009 l -0.34475,-0.0176 c -0.18488,-0.009 -0.412,-0.009 -0.60513,-0.009 -0.0925,0 -0.13462,0.0176 -0.13462,0.0697 0,0.0351 0.0336,0.0525 0.0673,0.0525 0.0755,0 0.21825,0.009 0.286,0.0265 0.277,0.061 0.34475,0.20088 0.36137,0.49825 0.0166,0.2795 0.0166,0.52438 0.0166,1.88813 l 0,1.53862 z m 5.38937,2.63299 c 0.40325,0 0.86563,-0.0529 1.17675,-0.26399 0.52975,-0.35826 0.68913,-0.8305 0.68913,-1.26751 0,-0.63812 -0.311,-1.154 -1.21038,-1.79212 l -0.2105,-0.14887 c -0.73125,-0.51513 -0.958,-0.78663 -0.958,-1.25851 0,-0.52487 0.44538,-0.80437 0.98363,-0.80437 0.664,0 0.90775,0.2795 0.958,0.36738 0.0422,0.0787 0.10137,0.27962 0.1095,0.36675 0.009,0.0614 0.0168,0.0964 0.0674,0.0964 0.0503,0.007 0.0589,-0.0454 0.0589,-0.159 0,-0.50537 0.0336,-0.75012 0.0336,-0.78525 0,-0.0436 -0.017,-0.0521 -0.0755,-0.0521 -0.0591,0 -0.118,0 -0.26075,-0.035 -0.1765,-0.0529 -0.471,-0.0961 -0.765,-0.0961 -0.9755,0 -1.6395,0.5245 -1.6395,1.39863 0,0.51587 0.26075,0.97012 1.05938,1.59087 l 0.336,0.26225 c 0.65587,0.50738 0.93325,0.76038 0.93325,1.294 0,0.5595 -0.378,0.9875 -1.10975,0.9875 -0.49613,0 -1.05063,-0.192 -1.16863,-0.73412 -0.0251,-0.10488 -0.0251,-0.20975 -0.0251,-0.27113 0,-0.0613 -0.0251,-0.0871 -0.0674,-0.0871 -0.0421,0 -0.0587,0.0436 -0.0587,0.12225 -0.009,0.12262 -0.0419,0.4195 -0.0419,0.787 0,0.20087 0.009,0.22712 0.1095,0.2795 0.30225,0.14987 0.73138,0.20275 1.07613,0.20275 z m 5.56513,-5.378 0.9245,0.0176 c 0.7065,0.0174 0.86625,0.18363 0.89112,0.41075 l 0.009,0.0786 c 0.009,0.10525 0.0255,0.13112 0.0591,0.13112 0.0334,0 0.067,-0.0348 0.067,-0.096 0,-0.0876 0.0255,-0.62087 0.0255,-0.848 0,-0.0439 0,-0.0875 -0.0336,-0.0875 -0.034,0 -0.101,0.0177 -0.2105,0.0351 -0.11725,0.0174 -0.28563,0.035 -0.52975,0.035 l -2.791,0 c -0.084,0 -0.37,-0.009 -0.58013,-0.035 -0.2015,-0.0262 -0.27737,-0.0875 -0.32775,-0.0875 -0.0255,0 -0.0588,0.096 -0.0757,0.13987 -0.009,0.0614 -0.1595,0.72575 -0.1595,0.80438 0,0.0436 0.0334,0.0609 0.0504,0.0609 0.0336,0 0.0588,-0.009 0.0757,-0.0697 0.0252,-0.0525 0.0334,-0.10488 0.11738,-0.23638 0.10937,-0.17424 0.28625,-0.22712 0.74825,-0.23562 l 1.068,-0.0176 0,3.12088 c 0,0.71687 0,1.30287 -0.0336,1.60837 -0.0255,0.2185 -0.0677,0.36738 -0.21862,0.40213 -0.0674,0.0177 -0.15138,0.035 -0.21863,0.035 -0.0422,0 -0.0589,0.0262 -0.0589,0.0529 0,0.045 0.0336,0.0624 0.11762,0.0624 0.21863,0 0.73138,-0.0262 0.76538,-0.0262 0.0419,0 0.51237,0.0262 0.916,0.0262 0.0843,0 0.118,-0.0276 0.118,-0.0624 0,-0.0266 -0.009,-0.0614 -0.0593,-0.0614 -0.067,0 -0.23525,-0.0176 -0.33588,-0.035 -0.22712,-0.0347 -0.26075,-0.17513 -0.28625,-0.39363 -0.0334,-0.3055 -0.0334,-0.89149 -0.0334,-1.60837 l 0,-3.12088 z m 2.37087,5.25401 c 0.2855,0 0.4705,-0.22713 0.4705,-0.5075 0,-0.27951 -0.20162,-0.45425 -0.46237,-0.45425 -0.32813,0 -0.46238,0.27999 -0.46238,0.48087 0,0.21863 0.13425,0.48088 0.45425,0.48088 z m 6.65825,-4.24851 c 0.007,-1.33787 0.0417,-2.20324 0.0417,-2.27299 0,-0.0875 -0.0251,-0.18388 -0.0921,-0.18388 -0.0589,0 -0.12649,0.0528 -0.202,0.10525 l -1.6225,1.1275 c -0.0336,0.0265 -0.0588,0.0613 -0.0588,0.0875 0,0.035 0.0336,0.079 0.0588,0.079 0.0337,0 0.0589,-0.009 0.10063,-0.0355 0.2105,-0.1045 0.79875,-0.41913 0.95887,-0.41913 0.13425,0 0.151,0.0956 0.151,0.27076 0,0.48075 0,0.85674 0,1.32874 l 0,1.53 c 0,0.87413 0,1.626 -0.0249,2.01038 -0.017,0.27112 -0.0757,0.40225 -0.35325,0.455 -0.15975,0.0347 -0.57188,0.061 -0.6725,0.061 -0.0336,0 -0.0674,0.0346 -0.0674,0.0701 0,0.045 0.0504,0.0624 0.14288,0.0624 0.53787,0 1.244,-0.0262 1.28612,-0.0262 0.0422,0 0.58013,0.0262 1.21075,0.0262 0.10063,0 0.14288,-0.0174 0.14288,-0.0624 0,-0.0355 -0.0422,-0.0701 -0.0755,-0.0701 -0.0759,0 -0.42875,-0.0263 -0.55488,-0.0525 -0.26925,-0.0613 -0.30262,-0.19238 -0.33625,-0.4635 -0.0421,-0.38438 -0.0504,-1.13625 -0.0421,-2.01038 l 0.009,-1.61725 z m 2.37925,2.70113 c 0,1.058 0.8575,1.69725 1.9085,1.69725 1.20187,0 2.0005,-0.91038 2.0005,-1.92475 0,-1.075 -0.90775,-1.60838 -1.46263,-1.90563 0.47088,-0.2445 1.20188,-0.76924 1.20188,-1.687 0,-0.85675 -0.66375,-1.33787 -1.53813,-1.33787 -1.2275,0 -1.79087,0.90062 -1.79087,1.565 0,0.77812 0.52125,1.24125 1.17712,1.6435 -0.76537,0.315 -1.49637,0.9705 -1.49637,1.9495 z m 1.97538,1.36337 c -0.78163,0 -1.32801,-0.67287 -1.32801,-1.45087 0,-0.87412 0.51275,-1.4075 1.13488,-1.72213 0.7565,0.41075 1.47975,0.83063 1.47975,1.78338 0,0.77813 -0.51313,1.38962 -1.28662,1.38962 z m 0.0337,-6.22375 c 0.64738,0 1.05088,0.48051 1.05088,1.14488 0,0.89175 -0.5715,1.2415 -0.89962,1.44237 -0.68913,-0.38475 -1.244,-0.7515 -1.244,-1.48562 0,-0.48125 0.33625,-1.10163 1.09274,-1.10163 z m 5.84288,1.1625 c 0,-0.48075 0.009,-1.17987 0.009,-1.31137 0,-0.0875 -0.0251,-0.14875 -0.084,-0.14875 -0.0588,0 -0.1095,0.0612 -0.17637,0.15763 -0.269,0.38487 -3.00126,4.23112 -3.05188,4.29237 -0.0337,0.0436 -0.0755,0.11375 -0.0755,0.1835 0,0.0788 0.0755,0.10462 0.1765,0.10462 l 2.56388,0 c 0,0.28875 0.0166,0.962 -0.0166,1.34638 -0.0251,0.26262 -0.084,0.44575 -0.36175,0.48975 -0.13438,0.0174 -0.31925,0.0263 -0.39475,0.0263 -0.0421,0 -0.0677,0.0346 -0.0677,0.0701 0,0.045 0.0422,0.0624 0.13475,0.0624 0.46237,0 0.91662,-0.0262 0.97538,-0.0262 0.0585,0 0.59675,0.0262 1.05912,0.0262 0.0925,0 0.13463,-0.0174 0.13463,-0.0624 0,-0.0355 -0.0336,-0.0701 -0.0757,-0.0701 -0.084,0 -0.25238,-0.009 -0.37,-0.0351 -0.26888,-0.0697 -0.33625,-0.21825 -0.36138,-0.48087 -0.0336,-0.38438 -0.017,-1.05763 -0.017,-1.34638 l 0.7735,0 c 0.101,0 0.13425,-0.0259 0.1765,-0.11337 0.0336,-0.10488 0.0757,-0.30587 0.0757,-0.34975 0,-0.0436 0,-0.10488 -0.0421,-0.10488 -0.0336,0 -0.11763,0.096 -0.34475,0.096 l -0.63888,0 0,-2.80601 z m -0.63887,2.80601 -2.15225,0 c 0.15987,-0.21826 2.0095,-2.86688 2.13562,-3.09438 l 0.0166,0 0,3.09437 z m 4.36324,-4.26613 c -1.16012,0 -2.00937,0.83088 -2.00937,2.037 0,0.73425 0.50487,1.68738 1.69825,1.68738 0.33662,0 0.765,-0.13113 1.00913,-0.40226 0.0251,-0.0261 0.0336,-0.0439 0.0336,-0.0697 0,-0.0266 -0.017,-0.0613 -0.0421,-0.0613 -0.0251,0 -0.0588,0.0174 -0.1095,0.0524 -0.10912,0.0701 -0.277,0.15737 -0.6725,0.15737 -0.22675,0 -1.261,-0.2885 -1.261,-1.7395 0,-0.69087 0.39538,-1.33787 1.15188,-1.33787 0.73987,0 1.38725,0.77812 1.38725,2.30812 0,2.05438 -1.29475,3.50575 -2.2865,4.07375 -0.0508,0.0276 -0.0844,0.0711 -0.0844,0.124 0,0.0524 0.0336,0.0871 0.0674,0.0871 0.0336,0 0.0839,-0.009 0.13425,-0.0348 1.02575,-0.53463 2.909,-2.04725 2.909,-4.5035 0,-1.32913 -0.73975,-2.37825 -1.92538,-2.37825"
         style="fill:#656263;fill-opacity:1;fill-rule:nonzero;stroke:none"
         id="path4892" />
      <path
         d="m 413.93551,979.29766 24.35625,0 0,0.57537 -24.35625,0 0,-0.57537 z"
         style="fill:#656263;fill-opacity:1;fill-rule:nonzero;stroke:none"
         id="path4894" />
      <path
         d="m 344.09088,957.82866 94.67538,0 0,0.69913 -94.67537,0 0,-0.69913 z"
         style="fill:#656263;fill-opacity:1;fill-rule:nonzero;stroke:none"
         id="path4896" />
      <path
         d="m 371.45651,979.29766 -26.5185,0 0,0.57537 26.5185,0 0,-0.57537 z"
         style="fill:#656263;fill-opacity:1;fill-rule:nonzero;stroke:none"
         id="path4898" />
    </g>
  </g>
</svg>
